<?xml version="1.0" encoding="UTF-8"?>
<!-- Generator: visioncortex VTracer 0.6.2 -->
<svg version="1.1" xmlns="http://www.w3.org/2000/svg" width="1280" height="712">
<path d="M0 0 C2.91266261 1.34636891 5.40023352 3.1330895 8 5 C11.49274777 7.13103774 15.06205682 9.0434866 18.75 10.8125 C23.14870297 12.9735649 27.18496585 15.62814392 31.296875 18.28515625 C35.10627131 20.70181084 39.04071892 22.84145861 43 25 C51.32306372 29.58950302 59.57354772 34.19197529 67.47265625 39.4921875 C70.53257938 41.3177367 73.72473152 42.60037334 77 44 C79.20551549 45.21793172 81.39287314 46.46922854 83.5625 47.75 C89.62012178 51.29357273 95.80319956 54.43731259 102.13671875 57.45703125 C104.65980207 58.81667369 106.0783216 59.9582167 108 62 C110.31254012 63.04718798 112.6485148 64.04346365 115 65 C127.0606699 70.52780704 127.0606699 70.52780704 128.7109375 74.87109375 C129.65782479 81.84479069 127.82012088 87.8851244 125.05078125 94.19921875 C123.34807121 98.73766893 122.52842754 103.44184812 121.61328125 108.19140625 C121 111 121 111 120 112 C119.69820464 113.61953551 119.43435995 115.24618575 119.1875 116.875 C118.31035592 121.9729878 116.7944729 126.49862945 114.94140625 131.3125 C113.76562641 134.66908312 113.1269882 138.00678002 112.5 141.5 C110.25 152.75 110.25 152.75 108 155 C107.68303598 156.41957818 107.41007489 157.84903447 107.15625 159.28125 C105.75872635 166.55872502 103.62670141 173.61075874 101.56640625 180.72265625 C99.94050525 186.4098207 98.53639382 192.05003186 97.43408203 197.86083984 C96.89424213 200.52117574 96.14531238 203.02327825 95.1875 205.5625 C94.74470703 206.80193359 94.74470703 206.80193359 94.29296875 208.06640625 C93 210 93 210 90.36328125 210.77734375 C89.58339844 210.85082031 88.80351563 210.92429688 88 211 C88 211.66 88 212.32 88 213 C87.41992188 213.29132813 86.83984375 213.58265625 86.2421875 213.8828125 C80.89131307 216.6906971 77.15528383 219.6420194 73 224 C72.34 224 71.68 224 71 224 C70.34 225.32 69.68 226.64 69 228 C68.34 228 67.68 228 67 228 C66.75121094 228.56203125 66.50242187 229.1240625 66.24609375 229.703125 C64.79979566 232.36902868 63.03284836 234.44575648 61.0625 236.75 C57.51563162 241.08434998 55.75559352 244.73321944 54 250 C51.7140936 252.88570691 51.13762971 252.98164937 47.25 253.5 C46.19425781 253.59474609 46.19425781 253.59474609 45.1171875 253.69140625 C41.81361604 254.17292312 39.01200859 255.60555158 36 257 C31.65122876 258.70169309 27.68922105 259.28679718 23.0859375 259.72265625 C20.5014116 260.06629172 18.40492021 261.00283796 16 262 C14.46232603 262.31203256 12.91989461 262.60094491 11.375 262.875 C7.53430114 263.58835417 4.077839 264.64823085 0.4375 266.0625 C-3.77590217 267.67892509 -7.46553814 268.39147077 -11.94140625 268.7265625 C-15.23741612 269.16436267 -18.01437023 270.59168407 -21 272 C-24.51136472 273.37401228 -27.64438776 274.11171023 -31.375 274.4375 C-35.25614951 274.80095213 -38.38339959 275.77485389 -41.97265625 277.24609375 C-44.82906073 278.30830197 -47.73924486 278.85652292 -50.71875 279.46875 C-53.02812169 280.00654889 -55.20183489 280.71279398 -57.4375 281.5 C-61.50499025 282.91756666 -65.55772083 283.75268274 -69.7890625 284.52734375 C-72.11911969 284.95107315 -72.11911969 284.95107315 -74.625 286.125 C-78.39764358 287.51492132 -80.96791822 287.51201038 -85 287 C-86.98747626 284.89561338 -87.79482416 283.56158944 -89 281 C-89.48339844 280.03320312 -89.96679688 279.06640625 -90.46484375 278.0703125 C-91.5049813 275.9900374 -92.52930963 273.90175764 -93.53515625 271.8046875 C-94.86527023 269.0560569 -94.86527023 269.0560569 -96.49609375 267.0703125 C-98.12601258 264.82652814 -99.09450331 262.51910426 -100.14257812 259.96289062 C-101.7596366 256.26096861 -103.77567407 252.77049383 -105.75 249.25 C-106.19102051 248.45867676 -106.63204102 247.66735352 -107.08642578 246.85205078 C-110.06631865 241.54760316 -113.22595816 236.39841751 -116.5546875 231.3046875 C-118.22456633 228.64190774 -119.56967779 225.90459221 -120.91796875 223.0703125 C-122.23035074 220.55925671 -123.75607597 218.24242103 -125.3125 215.875 C-128.78918462 210.52568054 -131.57909386 205.00748134 -134.32421875 199.26171875 C-136.00613881 195.98805151 -137.90667666 193.02368927 -140 190 C-142.21588284 186.63514087 -143.42835354 184.00152524 -144 180 C-144.66 180 -145.32 180 -146 180 C-147.3125 178.0625 -147.3125 178.0625 -149 175 C-149.55880859 174.00033203 -149.55880859 174.00033203 -150.12890625 172.98046875 C-150.97992873 171.45716519 -151.82335768 169.92960083 -152.66015625 168.3984375 C-153.55213493 166.80171765 -154.47692542 165.22288447 -155.43359375 163.6640625 C-158.27581667 158.94581141 -159.79533906 155.68099326 -159 150 C-158.34 149.01 -157.68 148.02 -157 147 C-156.34 147 -155.68 147 -155 147 C-155 146.34 -155 145.68 -155 145 C-154.34 145 -153.68 145 -153 145 C-152.67515625 144.18789063 -152.67515625 144.18789063 -152.34375 143.359375 C-150.53500003 140.18354656 -148.08276201 137.79271919 -145.5 135.25 C-145.00113281 134.74339844 -144.50226563 134.23679688 -143.98828125 133.71484375 C-140.25341139 130 -140.25341139 130 -138 130 C-137.77441406 129.28199219 -137.54882812 128.56398437 -137.31640625 127.82421875 C-135.71488411 124.3883122 -133.67783029 122.41877097 -130.9375 119.8125 C-127.53095187 116.73255163 -127.53095187 116.73255163 -125 113 C-124.34 113 -123.68 113 -123 113 C-123 112.34 -123 111.68 -123 111 C-122.34 111 -121.68 111 -121 111 C-121 110.34 -121 109.68 -121 109 C-120.34 109 -119.68 109 -119 109 C-118.62875 108.071875 -118.62875 108.071875 -118.25 107.125 C-116.76259631 104.59641373 -115.56321991 104.28160996 -113 103 C-112.70867187 102.39800781 -112.41734375 101.79601562 -112.1171875 101.17578125 C-110.79942834 98.60937618 -109.26872432 97.10876237 -107.125 95.1875 C-106.10792969 94.24970703 -106.10792969 94.24970703 -105.0703125 93.29296875 C-103 92 -103 92 -100.984375 91.99609375 C-94.06683878 95.49571345 -89.89946726 105.77250974 -86.42578125 112.3828125 C-84.66225983 115.61996141 -82.65654753 118.63081467 -80.578125 121.671875 C-76.52370325 127.65315065 -72.69504126 133.79111919 -69 140 C-68.61457031 140.64324219 -68.22914063 141.28648437 -67.83203125 141.94921875 C-65 146.77777778 -65 146.77777778 -65 149 C-64.34 149 -63.68 149 -63 149 C-61.59765625 151.01171875 -61.59765625 151.01171875 -60.0625 153.6875 C-59.55847656 154.55761719 -59.05445313 155.42773438 -58.53515625 156.32421875 C-58.02855469 157.20722656 -57.52195312 158.09023437 -57 159 C-51.80000495 167.74608331 -46.40782729 176.38127526 -41 185 C-32.85890693 184.63245629 -25.70533129 182.53864743 -18 180 C-15.77240349 179.30742939 -13.54324943 178.61984688 -11.3125 177.9375 C-10.24515625 177.6075 -9.1778125 177.2775 -8.078125 176.9375 C-6.11385759 176.33924597 -4.1453971 175.75447872 -2.171875 175.1875 C2.51437688 173.84055335 6.66219133 172.27734955 11 170 C11.66 170 12.32 170 13 170 C13.18175781 169.2265625 13.36351562 168.453125 13.55078125 167.65625 C15.85522152 158.10759494 15.85522152 158.10759494 17.5 154 C20.15156052 147.3225099 21.5507735 140.20606802 23 133.1875 C23.60459543 130.37790948 24.39376919 127.87540979 25.5625 125.25 C26.81174404 122.42562217 27.5403604 120.03362138 28 117 C27.34 117 26.68 117 26 117 C26 116.34 26 115.68 26 115 C25.34 115 24.68 115 24 115 C24 114.34 24 113.68 24 113 C23.27296875 112.90203125 22.5459375 112.8040625 21.796875 112.703125 C18.62908292 111.90675269 16.85123666 110.70517788 14.25 108.75 C10.4789722 106.01448204 6.7204897 103.6487164 2.62109375 101.44921875 C-1.48864239 99.17692052 -5.49157126 96.72889497 -9.50854492 94.29736328 C-13.63827485 91.80169128 -17.80214724 89.37950266 -22 87 C-22 86.34 -22 85.68 -22 85 C-22.928125 84.71125 -23.85625 84.4225 -24.8125 84.125 C-28 83 -28 83 -31 81 C-31 80.34 -31 79.68 -31 79 C-31.721875 78.9175 -32.44375 78.835 -33.1875 78.75 C-36.61041028 77.83722393 -38.28695163 76.26087365 -41 74 C-44.26794901 72.06590773 -47.57867217 70.23161705 -50.90625 68.40234375 C-61.98285723 62.16489785 -61.98285723 62.16489785 -66 57 C-65.82421875 54.88671875 -65.82421875 54.88671875 -65 53 C-64.01 52.67 -63.02 52.34 -62 52 C-60.79117904 49.99983534 -60.79117904 49.99983534 -60 48 C-59.34 48 -58.68 48 -58 48 C-57.34 46.68 -56.68 45.36 -56 44 C-55.34 44 -54.68 44 -54 44 C-54 43.34 -54 42.68 -54 42 C-53.34 42 -52.68 42 -52 42 C-52 41.34 -52 40.68 -52 40 C-51.34 40 -50.68 40 -50 40 C-50 39.34 -50 38.68 -50 38 C-48.7421875 36.73046875 -48.7421875 36.73046875 -46.875 35.1875 C-42.75383133 31.68561249 -38.77162975 28.05741638 -34.8125 24.375 C-34.21872559 23.82481201 -33.62495117 23.27462402 -33.01318359 22.70776367 C-29.00142344 18.97629872 -25.04759504 15.19926875 -21.3125 11.1875 C-20 10 -20 10 -18 10 C-18 9.34 -18 8.68 -18 8 C-17.34 8 -16.68 8 -16 8 C-16 7.34 -16 6.68 -16 6 C-15.34 6 -14.68 6 -14 6 C-14 5.34 -14 4.68 -14 4 C-13.34 4 -12.68 4 -12 4 C-12 3.34 -12 2.68 -12 2 C-7.93792324 -0.70805117 -4.77294082 -0.76832706 0 0 Z " fill="#000100" transform="translate(474,32)"/>
<path d="M0 0 C1.80936035 -0.00217529 1.80936035 -0.00217529 3.65527344 -0.00439453 C14.49007348 0.12644634 25.26732668 0.91964382 35.484375 4.72265625 C37.68567688 5.52536638 37.68567688 5.52536638 41.125 5.875 C44.76954895 6.4251206 47.18467116 7.68081831 50.4375 9.375 C52.76760909 10.05284992 55.10109824 10.71916793 57.4375 11.375 C75.10687937 18.71620643 91.39043996 27.89934815 107.50292969 38.16162109 C108.88871848 39.03079958 110.28676644 39.88055077 111.69238281 40.71728516 C112.42553711 41.15733887 113.15869141 41.59739258 113.9140625 42.05078125 C114.58775879 42.44821533 115.26145508 42.84564941 115.95556641 43.25512695 C116.68912354 43.80946411 116.68912354 43.80946411 117.4375 44.375 C117.4375 45.035 117.4375 45.695 117.4375 46.375 C118.16066406 46.6225 118.88382813 46.87 119.62890625 47.125 C122.73242224 48.50625886 124.80605005 50.15834056 127.375 52.375 C131.65969853 55.97646282 136.03930482 59.29284177 140.625 62.5 C154.30651901 72.11303803 154.30651901 72.11303803 156.4375 76.375 C157.18 76.808125 157.9225 77.24125 158.6875 77.6875 C162.989816 80.32755755 166.05584292 83.89974579 169.25 87.75 C172.09366382 91.14023816 175.27310527 93.91398955 178.703125 96.69921875 C180.5343652 98.46859273 181.44376435 100.04783334 182.4375 102.375 C183.0975 102.375 183.7575 102.375 184.4375 102.375 C184.685 103.15875 184.9325 103.9425 185.1875 104.75 C186.13475171 107.47815286 186.13475171 107.47815286 188.24609375 108.1640625 C191.42114863 109.91854915 192.754823 112.36983109 194.75 115.375 C195.53993079 116.55367626 196.33030034 117.73205857 197.12109375 118.91015625 C197.51022949 119.49555176 197.89936523 120.08094727 198.30029297 120.68408203 C199.92200399 123.09541104 201.6194811 125.45090039 203.3125 127.8125 C209.4375 136.55234919 209.4375 136.55234919 209.4375 140.375 C210.0975 140.375 210.7575 140.375 211.4375 140.375 C216.8211975 150.33484038 221.28461119 160.19219155 221.9375 171.625 C222.44584433 180.21037093 225.86040345 185.8974844 231.109375 192.51171875 C232.86062451 194.96861879 233.7097257 197.4639028 234.4375 200.375 C235.200625 199.55 235.96375 198.725 236.75 197.875 C239.4375 195.375 239.4375 195.375 242.4375 195.375 C242.6025 194.611875 242.7675 193.84875 242.9375 193.0625 C244.76904064 189.78098968 246.62783332 188.99751661 250.15625 187.87890625 C256.86359511 186.39731803 262.38491442 186.94900816 268.4375 190.375 C272.73815625 193.73426836 275.34363596 196.90567982 276.4375 202.375 C277.02878086 209.70688272 275.52162393 215.2488141 271.4375 221.375 C270.4475 221.375 269.4575 221.375 268.4375 221.375 C268.355 221.99375 268.2725 222.6125 268.1875 223.25 C267.19924558 226.05005419 266.03390015 226.11613932 263.4375 227.375 C263.17710937 227.93703125 262.91671875 228.4990625 262.6484375 229.078125 C260.96526637 232.27072056 258.53495318 234.60657194 256 237.125 C255.26426758 237.88490234 255.26426758 237.88490234 254.51367188 238.66015625 C253.21465039 239.9609308 251.83004877 241.17488368 250.4375 242.375 C249.4475 242.375 248.4575 242.375 247.4375 242.375 C247.35628906 243.18710937 247.35628906 243.18710937 247.2734375 244.015625 C246.05185958 247.46344306 243.62424535 249.62237185 241.0625 252.125 C240.5675 252.63160156 240.0725 253.13820313 239.5625 253.66015625 C235.81761708 257.375 235.81761708 257.375 232.4375 257.375 C232.34726562 257.95121094 232.25703125 258.52742188 232.1640625 259.12109375 C230.39680564 264.60339058 224.83537621 268.54662891 220.0625 271.375 C212.49521027 273.4625282 206.37044693 272.98590986 199.4375 269.375 C198.7775 269.045 198.1175 268.715 197.4375 268.375 C196.41138051 266.72428604 195.41441857 265.05529994 194.4375 263.375 C193.91800781 262.79234375 193.39851563 262.2096875 192.86328125 261.609375 C190.95152272 258.61341368 191.03801337 256.46765565 191.0625 252.9375 C191.05476563 251.82503906 191.04703125 250.71257812 191.0390625 249.56640625 C191.47395422 246.08300881 192.31230879 244.14811536 194.4375 241.375 C195.0975 241.375 195.7575 241.375 196.4375 241.375 C196.540625 240.776875 196.64375 240.17875 196.75 239.5625 C197.53451691 237.06630983 198.53639308 236.11768135 200.4375 234.375 C200.7675 233.715 201.0975 233.055 201.4375 232.375 C200.839375 232.106875 200.24125 231.83875 199.625 231.5625 C197.4375 230.375 197.4375 230.375 196.06787109 228.99023438 C194.23123016 227.17064521 192.30058088 225.79906629 190.1640625 224.34375 C188.9265625 223.49876953 188.9265625 223.49876953 187.6640625 222.63671875 C186.37628906 221.76466797 186.37628906 221.76466797 185.0625 220.875 C184.21171875 220.29363281 183.3609375 219.71226562 182.484375 219.11328125 C178.52730983 216.41976493 174.56337082 213.80520043 170.4375 211.375 C169.57125 210.735625 168.705 210.09625 167.8125 209.4375 C161.3747984 205.50334903 154.08768495 202.34516741 146.4375 203.375 C145.426875 203.87 144.41625 204.365 143.375 204.875 C137.72660913 207.49656258 131.48631388 207.1966036 125.4375 206.375 C121.15854573 204.78317059 117.34851326 202.71192123 113.4375 200.375 C112.11043825 199.69593496 110.77953752 199.0239665 109.4375 198.375 C109.4375 197.715 109.4375 197.055 109.4375 196.375 C108.80328125 197.01050781 108.1690625 197.64601562 107.515625 198.30078125 C105.03294788 200.78433379 102.54025938 203.25766904 100.046875 205.73046875 C98.42702395 207.34108612 96.8072338 208.95176472 95.1875 210.5625 C94.35992188 211.38169922 93.53234375 212.20089844 92.6796875 213.04492188 C91.89335938 213.82802734 91.10703125 214.61113281 90.296875 215.41796875 C89.57983398 216.12977295 88.86279297 216.84157715 88.12402344 217.57495117 C86.36654829 219.27924776 86.36654829 219.27924776 85.4375 221.375 C84.7775 221.375 84.1175 221.375 83.4375 221.375 C83.4375 222.035 83.4375 222.695 83.4375 223.375 C82.7775 223.375 82.1175 223.375 81.4375 223.375 C81.4375 224.035 81.4375 224.695 81.4375 225.375 C80.7775 225.375 80.1175 225.375 79.4375 225.375 C79.4375 226.035 79.4375 226.695 79.4375 227.375 C78.7775 227.375 78.1175 227.375 77.4375 227.375 C77.16550781 227.96410156 76.89351562 228.55320313 76.61328125 229.16015625 C75.4619625 231.32891947 74.23766325 232.97006415 72.625 234.8125 C72.14417969 235.36808594 71.66335938 235.92367187 71.16796875 236.49609375 C68.99084522 238.85996828 66.7196371 241.11196028 64.4375 243.375 C63.16615502 244.64532149 61.89536637 245.91619988 60.625 247.1875 C57.83333333 249.97916667 55.04166667 252.77083333 52.25 255.5625 C51.59386719 256.21992188 50.93773437 256.87734375 50.26171875 257.5546875 C49.14461894 258.66939523 48.02322005 259.77984066 46.89453125 260.8828125 C44.7645604 262.96905961 43.10482231 264.87401653 41.4375 267.375 C40.7775 267.375 40.1175 267.375 39.4375 267.375 C39.4375 268.035 39.4375 268.695 39.4375 269.375 C38.7775 269.375 38.1175 269.375 37.4375 269.375 C37.4375 270.035 37.4375 270.695 37.4375 271.375 C35.17444351 273.88950721 33.26884488 275.98242047 30.1875 277.4375 C28.21655978 278.2403367 28.21655978 278.2403367 27.6875 280.5 C27.605 281.11875 27.5225 281.7375 27.4375 282.375 C26.7775 282.375 26.1175 282.375 25.4375 282.375 C25.4375 283.035 25.4375 283.695 25.4375 284.375 C24.7775 284.375 24.1175 284.375 23.4375 284.375 C23.4375 285.035 23.4375 285.695 23.4375 286.375 C21.7875 287.035 20.1375 287.695 18.4375 288.375 C18.4375 289.365 18.4375 290.355 18.4375 291.375 C17.7775 291.375 17.1175 291.375 16.4375 291.375 C16.4375 292.035 16.4375 292.695 16.4375 293.375 C14.5625 295.5 14.5625 295.5 12.4375 297.375 C11.7775 297.375 11.1175 297.375 10.4375 297.375 C10.4375 298.035 10.4375 298.695 10.4375 299.375 C9.4475 299.375 8.4575 299.375 7.4375 299.375 C7.3446875 300.2103125 7.3446875 300.2103125 7.25 301.0625 C5.72878805 305.39210324 2.15281598 307.89812268 -1.5625 310.375 C-1.8925 311.365 -2.2225 312.355 -2.5625 313.375 C-4.234375 315.0234375 -4.234375 315.0234375 -6.3125 316.75 C-10.35066021 320.18243618 -14.19388233 323.59579702 -17.4375 327.8125 C-19.20851227 329.94813245 -20.82170208 331.50075479 -22.9375 333.25 C-27.03845353 336.6615691 -31.15282587 340.55565174 -33.5625 345.375 C-34.5525 345.375 -35.5425 345.375 -36.5625 345.375 C-36.93375 346.48875 -36.93375 346.48875 -37.3125 347.625 C-38.66715039 350.60523087 -40.0726541 352.27419252 -42.5625 354.375 C-43.2225 354.375 -43.8825 354.375 -44.5625 354.375 C-44.5625 355.035 -44.5625 355.695 -44.5625 356.375 C-47.5625 358.375 -47.5625 358.375 -49.5 358.4375 C-52.80472013 356.73506842 -53.92847845 353.55562632 -55.5625 350.375 C-56.14 349.446875 -56.7175 348.51875 -57.3125 347.5625 C-58.5625 345.375 -58.5625 345.375 -58.5625 343.375 C-59.2225 343.375 -59.8825 343.375 -60.5625 343.375 C-62.6875 341.5625 -62.6875 341.5625 -64.5625 339.375 C-64.5625 338.385 -64.5625 337.395 -64.5625 336.375 C-65.2225 336.375 -65.8825 336.375 -66.5625 336.375 C-66.5625 335.715 -66.5625 335.055 -66.5625 334.375 C-67.5525 334.065625 -67.5525 334.065625 -68.5625 333.75 C-72.63430186 331.88375748 -76.25046998 329.39938473 -79.5625 326.375 C-79.5625 325.715 -79.5625 325.055 -79.5625 324.375 C-81.5425 324.375 -83.5225 324.375 -85.5625 324.375 C-85.5625 323.715 -85.5625 323.055 -85.5625 322.375 C-86.5215625 322.00375 -86.5215625 322.00375 -87.5 321.625 C-89.5625 320.375 -89.5625 320.375 -90.375 318.375 C-90.5625 316.375 -90.5625 316.375 -89.5625 314.375 C-88.9025 314.375 -88.2425 314.375 -87.5625 314.375 C-87.5625 313.715 -87.5625 313.055 -87.5625 312.375 C-86.9025 312.375 -86.2425 312.375 -85.5625 312.375 C-85.5625 311.055 -85.5625 309.735 -85.5625 308.375 C-83.375 306.9375 -83.375 306.9375 -80.5625 305.375 C-77.55260893 302.60273191 -74.90074449 299.60756213 -72.25 296.5 C-69.83132546 293.69223434 -67.34241406 291.25091099 -64.5 288.875 C-61.07410127 285.9781976 -58.54047217 282.88229617 -55.94140625 279.2421875 C-54.02309448 276.64458686 -51.97598959 274.52032408 -49.5625 272.375 C-48.9025 272.375 -48.2425 272.375 -47.5625 272.375 C-47.5625 271.715 -47.5625 271.055 -47.5625 270.375 C-46.9025 270.375 -46.2425 270.375 -45.5625 270.375 C-45.5625 269.715 -45.5625 269.055 -45.5625 268.375 C-44.9025 268.375 -44.2425 268.375 -43.5625 268.375 C-43.5625 267.715 -43.5625 267.055 -43.5625 266.375 C-42.9025 266.375 -42.2425 266.375 -41.5625 266.375 C-41.5625 265.715 -41.5625 265.055 -41.5625 264.375 C-40.9025 264.375 -40.2425 264.375 -39.5625 264.375 C-39.5625 263.715 -39.5625 263.055 -39.5625 262.375 C-38.9025 262.375 -38.2425 262.375 -37.5625 262.375 C-37.2953418 261.78114502 -37.02818359 261.18729004 -36.75292969 260.57543945 C-35.5441437 258.34106946 -34.33199603 256.92747616 -32.515625 255.16796875 C-31.9175 254.58080078 -31.319375 253.99363281 -30.703125 253.38867188 C-30.07921875 252.78603516 -29.4553125 252.18339844 -28.8125 251.5625 C-24.63225906 247.50182104 -20.62156543 243.41345864 -16.89477539 238.92822266 C-14.91289751 236.61766611 -12.71395344 234.52645344 -10.5625 232.375 C-10.2325 231.715 -9.9025 231.055 -9.5625 230.375 C-8.9025 230.375 -8.2425 230.375 -7.5625 230.375 C-7.5625 229.715 -7.5625 229.055 -7.5625 228.375 C-6.9025 228.375 -6.2425 228.375 -5.5625 228.375 C-5.5625 227.715 -5.5625 227.055 -5.5625 226.375 C-4.9025 226.375 -4.2425 226.375 -3.5625 226.375 C-3.5625 225.715 -3.5625 225.055 -3.5625 224.375 C-2.9025 224.375 -2.2425 224.375 -1.5625 224.375 C-1.5625 223.715 -1.5625 223.055 -1.5625 222.375 C-0.9025 222.375 -0.2425 222.375 0.4375 222.375 C0.4375 221.715 0.4375 221.055 0.4375 220.375 C1.0975 220.375 1.7575 220.375 2.4375 220.375 C2.4375 219.715 2.4375 219.055 2.4375 218.375 C3.0975 218.375 3.7575 218.375 4.4375 218.375 C4.4375 217.715 4.4375 217.055 4.4375 216.375 C5.0975 216.375 5.7575 216.375 6.4375 216.375 C6.6953125 215.79234375 6.953125 215.2096875 7.21875 214.609375 C8.53584017 212.1947097 9.98838384 210.55759823 11.9375 208.625 C12.5459375 208.01140625 13.154375 207.3978125 13.78125 206.765625 C15.4375 205.375 15.4375 205.375 17.4375 205.375 C17.664375 204.818125 17.89125 204.26125 18.125 203.6875 C20.39350449 199.69061114 23.05649946 196.83533351 27.4375 195.375 C27.65599609 194.47007812 27.65599609 194.47007812 27.87890625 193.546875 C28.63468053 190.60834002 30.08183537 189.56568905 32.375 187.625 C33.44041016 186.70460937 33.44041016 186.70460937 34.52734375 185.765625 C36.4375 184.375 36.4375 184.375 38.4375 184.375 C38.499375 183.818125 38.56125 183.26125 38.625 182.6875 C40.00971179 178.74639721 43.15380102 176.44878594 46.30078125 173.81640625 C50.88739383 169.96008927 54.49360742 165.97125966 57.9921875 161.09765625 C58.46914063 160.52917969 58.94609375 159.96070313 59.4375 159.375 C60.0975 159.375 60.7575 159.375 61.4375 159.375 C61.4375 158.715 61.4375 158.055 61.4375 157.375 C62.0975 157.375 62.7575 157.375 63.4375 157.375 C63.4375 156.715 63.4375 156.055 63.4375 155.375 C64.0975 155.375 64.7575 155.375 65.4375 155.375 C64.96244322 153.56141846 64.48233958 151.74915821 64 149.9375 C63.73316406 148.92816406 63.46632813 147.91882813 63.19140625 146.87890625 C62.67771923 144.45747999 62.67771923 144.45747999 61.4375 143.375 C60.81815527 134.70417383 62.7087999 127.99880949 68.4375 121.375 C72.75220115 113.90724802 73.8073879 106.52079054 73.75 98.0625 C73.74653564 97.23016846 73.74307129 96.39783691 73.73950195 95.5402832 C73.58156225 86.57262399 71.60773761 79.31830973 67.4375 71.375 C67.4375 70.385 67.4375 69.395 67.4375 68.375 C66.839375 68.148125 66.24125 67.92125 65.625 67.6875 C63.4375 66.375 63.4375 66.375 62.20703125 64.21484375 C59.8985599 60.51007847 57.03288727 57.67920695 53.9375 54.625 C53.35613281 54.03589844 52.77476562 53.44679687 52.17578125 52.83984375 C51.33080078 51.99873047 51.33080078 51.99873047 50.46875 51.140625 C49.70401367 50.37927246 49.70401367 50.37927246 48.92382812 49.60253906 C47.33592356 48.14098097 47.33592356 48.14098097 44.4375 47.375 C44.4375 46.715 44.4375 46.055 44.4375 45.375 C43.7775 45.375 43.1175 45.375 42.4375 45.375 C42.4375 44.715 42.4375 44.055 42.4375 43.375 C41.90898438 43.28476563 41.38046875 43.19453125 40.8359375 43.1015625 C37.59258845 42.11904959 34.97711265 40.47742489 32.0625 38.75 C27.1238585 35.87511242 22.15423915 33.09537841 17.0625 30.5 C15.98226562 29.94570313 14.90203125 29.39140625 13.7890625 28.8203125 C10.73163666 27.50184215 7.78438706 26.61276163 4.54394531 25.86669922 C2.35443524 25.35561052 0.19858012 24.76806513 -1.96484375 24.15625 C-2.71056641 23.94613281 -3.45628906 23.73601563 -4.22460938 23.51953125 C-5.7379207 23.09086796 -7.25094362 22.66118516 -8.76367188 22.23046875 C-18.86954984 19.35888865 -18.86954984 19.35888865 -29.25 17.9375 C-33.2235576 17.53458682 -36.17577275 16.6052838 -39.5625 14.375 C-40.9375 12.1875 -40.9375 12.1875 -41.5625 10.375 C-40.625 8.5 -40.625 8.5 -38.5625 6.375 C-34.8125 5.375 -34.8125 5.375 -32.34375 4.9453125 C-29.50734711 4.42704831 -29.50734711 4.42704831 -26.65625 3.3671875 C-17.714405 0.37960845 -9.38007377 0.00119309 0 0 Z " fill="#000100" transform="translate(696.5625,21.625)"/>
<path d="M0 0 C0.93102539 0.01281006 1.86205078 0.02562012 2.82128906 0.03881836 C13.74337851 0.36203088 21.73538593 3.76284224 29.625 11.5 C29.625 12.16 29.625 12.82 29.625 13.5 C30.285 13.5 30.945 13.5 31.625 13.5 C31.625 14.16 31.625 14.82 31.625 15.5 C32.285 15.5 32.945 15.5 33.625 15.5 C35.625 18.5 35.625 18.5 35.625 21.5 C36.23214844 21.75394531 36.83929687 22.00789063 37.46484375 22.26953125 C39.91104367 23.66293627 40.76006579 24.78959896 42.1875 27.1875 C42.58066406 27.83074219 42.97382812 28.47398437 43.37890625 29.13671875 C47.05403526 36.106791 48.12406588 41.06266482 48.0625 48.9375 C48.08248047 49.84048828 48.10246094 50.74347656 48.12304688 51.67382812 C48.11845078 58.02103974 46.85342157 62.03405852 43.625 67.5 C42.965 67.5 42.305 67.5 41.625 67.5 C41.295 68.82 40.965 70.14 40.625 71.5 C39.635 71.5 38.645 71.5 37.625 71.5 C37.625 72.16 37.625 72.82 37.625 73.5 C36.965 73.5 36.305 73.5 35.625 73.5 C35.295 74.82 34.965 76.14 34.625 77.5 C33.965 77.5 33.305 77.5 32.625 77.5 C32.2228125 78.7065625 32.2228125 78.7065625 31.8125 79.9375 C31.420625 80.783125 31.02875 81.62875 30.625 82.5 C29.14 82.995 29.14 82.995 27.625 83.5 C26.91410107 84.8102843 26.25232534 86.14771115 25.625 87.5 C24.64034941 88.7379957 23.61838976 89.94717703 22.5625 91.125 C20.96121517 92.9181258 19.70171842 94.34656316 18.625 96.5 C17.965 96.5 17.305 96.5 16.625 96.5 C16.625 97.16 16.625 97.82 16.625 98.5 C15.965 98.5 15.305 98.5 14.625 98.5 C14.625 99.16 14.625 99.82 14.625 100.5 C13.965 100.5 13.305 100.5 12.625 100.5 C12.625 101.16 12.625 101.82 12.625 102.5 C11.965 102.5 11.305 102.5 10.625 102.5 C10.3878125 103.04140625 10.150625 103.5828125 9.90625 104.140625 C8.28152243 107.13250137 6.2748123 109.61159399 4.125 112.25 C2.93390625 113.72726562 2.93390625 113.72726562 1.71875 115.234375 C1.0278125 115.98203125 0.336875 116.7296875 -0.375 117.5 C-1.035 117.5 -1.695 117.5 -2.375 117.5 C-2.375 118.16 -2.375 118.82 -2.375 119.5 C-3.035 119.5 -3.695 119.5 -4.375 119.5 C-5.035 120.82 -5.695 122.14 -6.375 123.5 C-7.035 123.5 -7.695 123.5 -8.375 123.5 C-8.375 124.16 -8.375 124.82 -8.375 125.5 C-9.035 125.5 -9.695 125.5 -10.375 125.5 C-10.6121875 126.04140625 -10.849375 126.5828125 -11.09375 127.140625 C-12.71847757 130.13250137 -14.7251877 132.61159399 -16.875 135.25 C-17.6690625 136.23484375 -18.463125 137.2196875 -19.28125 138.234375 C-19.9721875 138.98203125 -20.663125 139.7296875 -21.375 140.5 C-22.035 140.5 -22.695 140.5 -23.375 140.5 C-23.61476563 141.05816406 -23.85453125 141.61632812 -24.1015625 142.19140625 C-25.65204087 145.00224281 -27.56781874 147.0849491 -29.75 149.4375 C-32.12615587 152.00835761 -34.40510472 154.53917961 -36.5390625 157.31640625 C-37.14492188 158.03699219 -37.75078125 158.75757813 -38.375 159.5 C-39.035 159.5 -39.695 159.5 -40.375 159.5 C-40.6225 160.11875 -40.87 160.7375 -41.125 161.375 C-42.58128639 163.85068687 -43.75312506 164.45125002 -46.375 165.5 C-46.375 166.49 -46.375 167.48 -46.375 168.5 C-47.035 168.5 -47.695 168.5 -48.375 168.5 C-48.7153125 169.61375 -48.7153125 169.61375 -49.0625 170.75 C-50.375 173.5 -50.375 173.5 -52.67578125 175.3359375 C-55.5288556 177.62335167 -57.60154402 180.01716978 -59.875 182.875 C-61.03708984 184.31939453 -61.03708984 184.31939453 -62.22265625 185.79296875 C-63.48240365 187.37736975 -64.74084395 188.96281463 -65.99609375 190.55078125 C-67.08189711 191.90078602 -68.22183658 193.2070592 -69.375 194.5 C-70.035 194.5 -70.695 194.5 -71.375 194.5 C-71.601875 195.056875 -71.82875 195.61375 -72.0625 196.1875 C-73.74528092 199.15239972 -75.93608512 201.116515 -78.375 203.5 C-79.38591005 204.65722598 -80.38554113 205.82438005 -81.375 207 C-83.9021771 209.99135249 -86.60527068 212.73027068 -89.375 215.5 C-92.09847357 218.54835494 -94.74015565 221.61575252 -97.125 224.9375 C-97.5375 225.453125 -97.95 225.96875 -98.375 226.5 C-99.035 226.5 -99.695 226.5 -100.375 226.5 C-100.643125 227.0775 -100.91125 227.655 -101.1875 228.25 C-102.40429189 230.55550043 -103.67833879 232.52056192 -105.375 234.5 C-106.035 234.5 -106.695 234.5 -107.375 234.5 C-107.66375 235.098125 -107.9525 235.69625 -108.25 236.3125 C-109.375 238.5 -109.375 238.5 -111.375 241.5 C-112.035 241.5 -112.695 241.5 -113.375 241.5 C-113.63796875 242.09296875 -113.9009375 242.6859375 -114.171875 243.296875 C-115.42902509 245.59892907 -116.71087918 246.97383383 -118.625 248.75 C-121.90211201 251.90396375 -124.52718508 255.262196 -127.11328125 258.99609375 C-127.52964844 259.49238281 -127.94601562 259.98867188 -128.375 260.5 C-129.035 260.5 -129.695 260.5 -130.375 260.5 C-130.375 261.16 -130.375 261.82 -130.375 262.5 C-131.035 262.5 -131.695 262.5 -132.375 262.5 C-132.375 263.16 -132.375 263.82 -132.375 264.5 C-133.035 264.5 -133.695 264.5 -134.375 264.5 C-134.375 265.16 -134.375 265.82 -134.375 266.5 C-135.035 266.5 -135.695 266.5 -136.375 266.5 C-136.59800781 267.20511719 -136.82101562 267.91023438 -137.05078125 268.63671875 C-138.66186362 272.12026853 -140.93443412 274.58215073 -143.5625 277.3125 C-144.55794685 278.37178051 -145.55273825 279.43167736 -146.546875 280.4921875 C-147.03091797 281.00491211 -147.51496094 281.51763672 -148.01367188 282.04589844 C-151.67129621 285.95278699 -155.18099322 289.9899326 -158.5 294.1875 C-160.63463136 296.82021201 -162.95005505 299.13144912 -165.375 301.5 C-166.12910156 302.32177734 -166.12910156 302.32177734 -166.8984375 303.16015625 C-173.16091663 309.84895438 -179.57206001 314.72452833 -188.9765625 315.2265625 C-191.31795162 315.22393762 -193.65950029 315.18958333 -196 315.125 C-197.175625 315.13144531 -198.35125 315.13789062 -199.5625 315.14453125 C-206.63594784 315.05710661 -211.34825796 314.23251079 -217.375 310.5 C-218.385625 309.88125 -219.39625 309.2625 -220.4375 308.625 C-227.00791182 303.87193613 -232.95227443 298.49677291 -238.0625 292.1875 C-241.28075277 288.35227649 -245.08772394 285.48596858 -249.02734375 282.42578125 C-251.97292281 280.00952422 -254.16377858 277.59570998 -256.375 274.5 C-256.375 273.84 -256.375 273.18 -256.375 272.5 C-257.2721875 272.1596875 -257.2721875 272.1596875 -258.1875 271.8125 C-260.98683411 270.13289954 -261.95600061 268.40894875 -263.375 265.5 C-263.375 264.51 -263.375 263.52 -263.375 262.5 C-264.035 262.5 -264.695 262.5 -265.375 262.5 C-267.84628586 257.01571748 -267.7424979 252.11790925 -267.75 246.1875 C-267.77449219 245.18009766 -267.79898437 244.17269531 -267.82421875 243.13476562 C-267.84989214 236.56665765 -266.8767069 232.05833141 -263.375 226.5 C-262.83875 225.55125 -262.3025 224.6025 -261.75 223.625 C-256.28813537 216.43833601 -249.44518006 210.09722588 -242.375 204.5 C-241.715 204.5 -241.055 204.5 -240.375 204.5 C-240.1275 203.88125 -239.88 203.2625 -239.625 202.625 C-238.16871361 200.14931313 -236.99687494 199.54874998 -234.375 198.5 C-234.375 197.84 -234.375 197.18 -234.375 196.5 C-232.80213316 195.08561594 -231.16360004 193.74395599 -229.5 192.4375 C-224.73648081 188.62913376 -220.1711952 184.67681119 -215.6640625 180.5703125 C-213.10126534 178.25242429 -210.47929255 176.01471418 -207.83984375 173.78515625 C-206.52191142 172.62889028 -205.28559865 171.38115537 -204.0625 170.125 C-202.375 168.5 -202.375 168.5 -200.375 168.5 C-200.375 167.84 -200.375 167.18 -200.375 166.5 C-199.323125 165.9121875 -199.323125 165.9121875 -198.25 165.3125 C-195.67314551 163.6879613 -194.5763483 162.67386283 -192.75 160.375 C-189.34966605 156.22098379 -185.31662227 153.05257933 -181.13671875 149.7109375 C-178.65480906 147.72400555 -176.21875973 145.70253573 -173.8125 143.625 C-173.19246094 143.09132813 -172.57242188 142.55765625 -171.93359375 142.0078125 C-170.1435888 140.38290296 -170.1435888 140.38290296 -168.375 137.5 C-167.385 137.5 -166.395 137.5 -165.375 137.5 C-165.375 136.84 -165.375 136.18 -165.375 135.5 C-163.72114767 134.15080468 -162.053298 132.81866272 -160.375 131.5 C-159.715 130.51 -159.055 129.52 -158.375 128.5 C-157.385 128.17 -156.395 127.84 -155.375 127.5 C-154.715 126.654375 -154.055 125.80875 -153.375 124.9375 C-152.715 124.133125 -152.055 123.32875 -151.375 122.5 C-150.385 122.5 -149.395 122.5 -148.375 122.5 C-148.12105469 121.90960938 -147.86710937 121.31921875 -147.60546875 120.7109375 C-146.23993092 118.25730445 -144.83408316 116.92155094 -142.6875 115.125 C-141.97980469 114.52816406 -141.27210938 113.93132812 -140.54296875 113.31640625 C-139.46982422 112.41728516 -139.46982422 112.41728516 -138.375 111.5 C-137.71113281 110.91089844 -137.04726563 110.32179688 -136.36328125 109.71484375 C-135.74839844 109.16957031 -135.13351562 108.62429688 -134.5 108.0625 C-133.66855469 107.32193359 -133.66855469 107.32193359 -132.8203125 106.56640625 C-131.375 105.5 -131.375 105.5 -129.375 105.5 C-129.375 104.84 -129.375 104.18 -129.375 103.5 C-128.715 103.5 -128.055 103.5 -127.375 103.5 C-127.375 102.84 -127.375 102.18 -127.375 101.5 C-125.82184614 100.12751319 -124.20614316 98.82521299 -122.5625 97.5625 C-118.97353733 94.81800332 -118.97353733 94.81800332 -115.67578125 91.74609375 C-114.375 90.5 -114.375 90.5 -112.375 90.5 C-111.385 88.52 -111.385 88.52 -110.375 86.5 C-109.715 86.5 -109.055 86.5 -108.375 86.5 C-108.375 85.84 -108.375 85.18 -108.375 84.5 C-107.6325 84.066875 -106.89 83.63375 -106.125 83.1875 C-103.03620419 81.29210257 -101.62587355 79.3296696 -99.375 76.5 C-92.08393971 69.5 -92.08393971 69.5 -89.375 69.5 C-89.375 68.84 -89.375 68.18 -89.375 67.5 C-87.94779591 66.23071202 -86.45516224 65.03461407 -84.9375 63.875 C-80.6553858 60.53507172 -76.55972842 57.06911807 -72.52734375 53.43359375 C-70.47904008 51.59346613 -68.40042525 49.79488311 -66.3125 48 C-62.69808416 44.86991588 -59.40194263 41.49431799 -56.13671875 38.00390625 C-54.375 36.5 -54.375 36.5 -51.375 36.5 C-51.313125 35.88125 -51.25125 35.2625 -51.1875 34.625 C-50.375 32.5 -50.375 32.5 -47.8125 31.25 C-46.6059375 30.87875 -46.6059375 30.87875 -45.375 30.5 C-45.375 29.84 -45.375 29.18 -45.375 28.5 C-43.74067245 27.02230782 -42.04023632 25.61730681 -40.3125 24.25 C-39.31347656 23.44820313 -38.31445312 22.64640625 -37.28515625 21.8203125 C-36.32480469 21.05460937 -35.36445312 20.28890625 -34.375 19.5 C-29.38442574 15.76231337 -29.38442574 15.76231337 -26.375 10.5 C-24.73166496 9.46210419 -23.06256133 8.46432076 -21.375 7.5 C-20.89885254 7.01853516 -20.42270508 6.53707031 -19.93212891 6.04101562 C-14.31640978 0.48340836 -7.54646738 -0.156935 0 0 Z " fill="#000100" transform="translate(591.375,350.5)"/>
<path d="M0 0 C3.28280232 0.43835639 4.53066423 1.498356 6.9453125 3.7265625 C7.64269531 4.35304688 8.34007812 4.97953125 9.05859375 5.625 C10.6328125 7.3515625 10.6328125 7.3515625 10.6328125 9.3515625 C11.2515625 9.4753125 11.8703125 9.5990625 12.5078125 9.7265625 C14.6328125 10.3515625 14.6328125 10.3515625 16.6328125 12.3515625 C16.6328125 13.3415625 16.6328125 14.3315625 16.6328125 15.3515625 C17.2309375 15.4340625 17.8290625 15.5165625 18.4453125 15.6015625 C21.26660765 16.56886369 21.88647689 17.97654606 23.6328125 20.3515625 C25.29605651 21.35724492 26.96217503 22.35821049 28.6328125 23.3515625 C28.6328125 24.0115625 28.6328125 24.6715625 28.6328125 25.3515625 C30.1178125 25.8465625 30.1178125 25.8465625 31.6328125 26.3515625 C36.40553977 30.66974432 36.40553977 30.66974432 37.6328125 34.3515625 C38.2928125 34.3515625 38.9528125 34.3515625 39.6328125 34.3515625 C39.6328125 35.0115625 39.6328125 35.6715625 39.6328125 36.3515625 C40.1896875 36.4134375 40.7465625 36.4753125 41.3203125 36.5390625 C44.6016644 37.69196993 46.22631572 39.8573654 48.6328125 42.3515625 C50.36073034 44.10279558 52.08988474 45.85280948 53.8203125 47.6015625 C54.68011719 48.47296875 55.53992188 49.344375 56.42578125 50.2421875 C58.44712316 52.38150488 58.44712316 52.38150488 60.6328125 53.3515625 C60.6328125 54.0115625 60.6328125 54.6715625 60.6328125 55.3515625 C61.2928125 55.3515625 61.9528125 55.3515625 62.6328125 55.3515625 C62.6328125 56.0115625 62.6328125 56.6715625 62.6328125 57.3515625 C63.2928125 57.3515625 63.9528125 57.3515625 64.6328125 57.3515625 C64.6328125 58.0115625 64.6328125 58.6715625 64.6328125 59.3515625 C65.18839844 59.58875 65.74398437 59.8259375 66.31640625 60.0703125 C69.17652371 61.6522999 71.30229919 63.62818965 73.6953125 65.8515625 C76.29201585 68.25692981 78.68387556 70.38560454 81.6328125 72.3515625 C81.6328125 73.0115625 81.6328125 73.6715625 81.6328125 74.3515625 C82.2928125 74.3515625 82.9528125 74.3515625 83.6328125 74.3515625 C83.6328125 75.0115625 83.6328125 75.6715625 83.6328125 76.3515625 C84.2928125 76.3515625 84.9528125 76.3515625 85.6328125 76.3515625 C85.6328125 77.0115625 85.6328125 77.6715625 85.6328125 78.3515625 C86.9528125 79.0115625 88.2728125 79.6715625 89.6328125 80.3515625 C89.6328125 81.0115625 89.6328125 81.6715625 89.6328125 82.3515625 C90.6228125 82.3515625 91.6128125 82.3515625 92.6328125 82.3515625 C92.9628125 83.6715625 93.2928125 84.9915625 93.6328125 86.3515625 C94.1896875 86.4134375 94.7465625 86.4753125 95.3203125 86.5390625 C98.62224116 87.6991996 100.26189241 89.80716045 102.6328125 92.3515625 C105.36743749 95.1581513 108.14364111 97.82176594 111.1328125 100.3515625 C114.1222556 102.88356926 116.89505254 105.54535854 119.6328125 108.3515625 C124.43588401 113.27322837 129.43315692 117.85381425 134.6328125 122.3515625 C136.47216415 123.94882495 138.30539921 125.55315516 140.1328125 127.1640625 C140.98875 127.91300781 141.8446875 128.66195312 142.7265625 129.43359375 C144.6328125 131.3515625 144.6328125 131.3515625 144.6328125 133.3515625 C145.3546875 133.58230469 146.0765625 133.81304687 146.8203125 134.05078125 C150.17175702 135.60082434 152.08130862 137.50491705 154.6328125 140.1640625 C155.8703125 141.44216797 155.8703125 141.44216797 157.1328125 142.74609375 C157.9578125 143.60589844 158.7828125 144.46570313 159.6328125 145.3515625 C163.03016587 148.81593498 166.5083406 151.97379096 170.27734375 155.01953125 C170.72464844 155.45910156 171.17195312 155.89867187 171.6328125 156.3515625 C171.6328125 157.0115625 171.6328125 157.6715625 171.6328125 158.3515625 C172.9528125 159.0115625 174.2728125 159.6715625 175.6328125 160.3515625 C175.6328125 161.0115625 175.6328125 161.6715625 175.6328125 162.3515625 C176.2928125 162.3515625 176.9528125 162.3515625 177.6328125 162.3515625 C177.6328125 163.0115625 177.6328125 163.6715625 177.6328125 164.3515625 C178.19355469 164.59519531 178.75429688 164.83882812 179.33203125 165.08984375 C182.08011024 166.59685481 184.13318257 168.42355465 186.4453125 170.5390625 C187.32445312 171.34214844 188.20359375 172.14523437 189.109375 172.97265625 C191.2318245 174.97354131 193.28842308 177.00991162 195.3203125 179.1015625 C197.58799559 181.42863729 199.89072384 183.32586468 202.5703125 185.1640625 C203.5809375 185.8859375 204.5915625 186.6078125 205.6328125 187.3515625 C205.6328125 188.0115625 205.6328125 188.6715625 205.6328125 189.3515625 C206.20515625 189.609375 206.7775 189.8671875 207.3671875 190.1328125 C209.84410245 191.46522192 211.7669291 193.00212368 213.8828125 194.8515625 C214.58921875 195.46 215.295625 196.0684375 216.0234375 196.6953125 C217.6328125 198.3515625 217.6328125 198.3515625 217.6328125 200.3515625 C218.6228125 200.6815625 219.6128125 201.0115625 220.6328125 201.3515625 C220.9628125 202.0115625 221.2928125 202.6715625 221.6328125 203.3515625 C222.6228125 203.6815625 223.6128125 204.0115625 224.6328125 204.3515625 C224.6328125 205.0115625 224.6328125 205.6715625 224.6328125 206.3515625 C225.2928125 206.3515625 225.9528125 206.3515625 226.6328125 206.3515625 C226.9628125 207.3415625 227.2928125 208.3315625 227.6328125 209.3515625 C228.6228125 209.6815625 229.6128125 210.0115625 230.6328125 210.3515625 C230.6328125 211.0115625 230.6328125 211.6715625 230.6328125 212.3515625 C231.2928125 212.3515625 231.9528125 212.3515625 232.6328125 212.3515625 C232.6328125 213.3415625 232.6328125 214.3315625 232.6328125 215.3515625 C233.2928125 215.3515625 233.9528125 215.3515625 234.6328125 215.3515625 C238.66878372 221.34436826 238.66878372 221.34436826 238.5078125 225.8515625 C238.2190625 227.0065625 237.9303125 228.1615625 237.6328125 229.3515625 C237.3646875 230.4653125 237.0965625 231.5790625 236.8203125 232.7265625 C235.16245484 237.78739115 233.01315321 242.59088108 230.6328125 247.3515625 C229.9728125 247.3515625 229.3128125 247.3515625 228.6328125 247.3515625 C228.3646875 248.0940625 228.0965625 248.8365625 227.8203125 249.6015625 C226.68004499 252.24218199 225.53900944 254.20709094 223.6328125 256.3515625 C222.9728125 256.3515625 222.3128125 256.3515625 221.6328125 256.3515625 C221.52710938 256.94453125 221.42140625 257.5375 221.3125 258.1484375 C220.53873651 260.65649846 219.61434459 261.77273984 217.7578125 263.6015625 C217.24476563 264.12234375 216.73171875 264.643125 216.203125 265.1796875 C214.6328125 266.3515625 214.6328125 266.3515625 211.6328125 266.3515625 C211.54 267.2796875 211.54 267.2796875 211.4453125 268.2265625 C211.1771875 268.9278125 210.9090625 269.6290625 210.6328125 270.3515625 C208.96614583 271.01822917 207.29947917 271.68489583 205.6328125 272.3515625 C205.50261719 272.96 205.37242187 273.5684375 205.23828125 274.1953125 C204.40293291 277.17023045 202.90713203 278.03715615 200.4453125 279.8515625 C199.22908203 280.75068359 199.22908203 280.75068359 197.98828125 281.66796875 C197.21097656 282.22355469 196.43367187 282.77914063 195.6328125 283.3515625 C195.03082031 283.79371094 194.42882812 284.23585938 193.80859375 284.69140625 C191.1716827 286.55783447 189.9407319 287.3515625 186.6328125 287.3515625 C186.6328125 288.0115625 186.6328125 288.6715625 186.6328125 289.3515625 C185.9728125 289.3515625 185.3128125 289.3515625 184.6328125 289.3515625 C184.6328125 290.0115625 184.6328125 290.6715625 184.6328125 291.3515625 C182.14188145 292.4216955 179.64431873 293.45681972 177.1328125 294.4765625 C176.43671875 294.77949219 175.740625 295.08242188 175.0234375 295.39453125 C169.46919112 297.60594416 166.26339186 297.402874 160.6328125 295.3515625 C157.6328125 292.9140625 157.6328125 292.9140625 155.6328125 290.3515625 C155.6328125 289.3615625 155.6328125 288.3715625 155.6328125 287.3515625 C155.0140625 287.1040625 154.3953125 286.8565625 153.7578125 286.6015625 C151.22922623 285.11415881 150.91442246 283.91478241 149.6328125 281.3515625 C149.05144531 281.08601563 148.47007812 280.82046875 147.87109375 280.546875 C144.85873378 278.93818015 143.07881926 276.78027565 140.8203125 274.2265625 C139.94761719 273.24300781 139.07492187 272.25945312 138.17578125 271.24609375 C137.33660156 270.29089844 136.49742187 269.33570313 135.6328125 268.3515625 C134.92769531 267.57167969 134.22257813 266.79179688 133.49609375 265.98828125 C132.88121094 265.30378906 132.26632812 264.61929687 131.6328125 263.9140625 C131.0965625 263.31722656 130.5603125 262.72039062 130.0078125 262.10546875 C128.6328125 260.3515625 128.6328125 260.3515625 127.55859375 258.18359375 C126.78961027 256.20090657 126.78961027 256.20090657 124.8203125 255.4765625 C122.1794054 254.11838171 120.75264195 252.24044017 118.92578125 249.94140625 C116.17213746 246.55550588 113.25751274 243.76802933 109.6328125 241.3515625 C109.6328125 240.6915625 109.6328125 240.0315625 109.6328125 239.3515625 C108.9728125 239.3515625 108.3128125 239.3515625 107.6328125 239.3515625 C107.3028125 238.3615625 106.9728125 237.3715625 106.6328125 236.3515625 C104.43284567 234.03580794 102.15745102 231.84001906 99.8203125 229.6640625 C98.6328125 228.3515625 98.6328125 228.3515625 98.6328125 226.3515625 C97.9728125 226.3515625 97.3128125 226.3515625 96.6328125 226.3515625 C96.6328125 225.6915625 96.6328125 225.0315625 96.6328125 224.3515625 C95.9728125 224.3515625 95.3128125 224.3515625 94.6328125 224.3515625 C94.6328125 223.6915625 94.6328125 223.0315625 94.6328125 222.3515625 C93.9728125 222.3515625 93.3128125 222.3515625 92.6328125 222.3515625 C91.08203125 220.77734375 91.08203125 220.77734375 89.3203125 218.6640625 C87.19636566 216.15353956 85.07779906 213.74332829 82.6953125 211.4765625 C80.6328125 209.3515625 80.6328125 209.3515625 80.6328125 207.3515625 C79.9728125 207.3515625 79.3128125 207.3515625 78.6328125 207.3515625 C76.90625 205.671875 76.90625 205.671875 75.0078125 203.4765625 C74.37617187 202.75726562 73.74453125 202.03796875 73.09375 201.296875 C71.6328125 199.3515625 71.6328125 199.3515625 71.6328125 197.3515625 C70.9728125 197.3515625 70.3128125 197.3515625 69.6328125 197.3515625 C69.6328125 196.6915625 69.6328125 196.0315625 69.6328125 195.3515625 C68.9728125 195.3515625 68.3128125 195.3515625 67.6328125 195.3515625 C67.6328125 194.6915625 67.6328125 194.0315625 67.6328125 193.3515625 C66.9728125 193.3515625 66.3128125 193.3515625 65.6328125 193.3515625 C61.6328125 188.88097426 61.6328125 188.88097426 61.6328125 186.3515625 C60.9728125 186.3515625 60.3128125 186.3515625 59.6328125 186.3515625 C58.1171875 184.77734375 58.1171875 184.77734375 56.3828125 182.6640625 C54.18693937 180.06561263 52.06552426 177.75657768 49.3828125 175.6640625 C46.62436203 173.34445643 45.45999857 171.39687261 43.6328125 168.3515625 C42.61669093 167.46716039 41.57263927 166.61417709 40.5078125 165.7890625 C37.5373691 163.27064309 37.35761217 162.85476091 36.6328125 159.3515625 C36.03597656 159.0628125 35.43914062 158.7740625 34.82421875 158.4765625 C32.28147962 157.1711991 31.01141665 155.73264788 29.1953125 153.5390625 C26.49273183 150.2972198 23.64284867 147.31158297 20.6328125 144.3515625 C9.06005243 132.94386557 9.06005243 132.94386557 4.6328125 127.3515625 C4.6328125 126.6915625 4.6328125 126.0315625 4.6328125 125.3515625 C3.9728125 125.3515625 3.3128125 125.3515625 2.6328125 125.3515625 C2.6328125 124.6915625 2.6328125 124.0315625 2.6328125 123.3515625 C1.9728125 123.3515625 1.3128125 123.3515625 0.6328125 123.3515625 C-3.59961067 119.61707147 -6.94405249 115.19832412 -10.40234375 110.75390625 C-12.32684907 108.30798169 -12.32684907 108.30798169 -14.61328125 106.16796875 C-16.3671875 104.3515625 -16.3671875 104.3515625 -16.3671875 102.3515625 C-17.6871875 102.0215625 -19.0071875 101.6915625 -20.3671875 101.3515625 C-20.3671875 100.3615625 -20.3671875 99.3715625 -20.3671875 98.3515625 C-21.3571875 98.3515625 -22.3471875 98.3515625 -23.3671875 98.3515625 C-24.41362816 96.71365538 -25.4070058 95.04148229 -26.3671875 93.3515625 C-27.0890625 92.6296875 -27.8109375 91.9078125 -28.5546875 91.1640625 C-29.1528125 90.5659375 -29.7509375 89.9678125 -30.3671875 89.3515625 C-30.3671875 88.6915625 -30.3671875 88.0315625 -30.3671875 87.3515625 C-30.9240625 87.1246875 -31.4809375 86.8978125 -32.0546875 86.6640625 C-35.04759949 84.96538272 -37.10245987 82.93083563 -39.3671875 80.3515625 C-39.3671875 79.3615625 -39.3671875 78.3715625 -39.3671875 77.3515625 C-39.9653125 77.1246875 -40.5634375 76.8978125 -41.1796875 76.6640625 C-44.12000076 74.89987454 -45.05498529 73.52847311 -46.3671875 70.3515625 C-46.17160105 66.30944248 -45.5673672 63.03217348 -44.4296875 59.1640625 C-43.45168008 55.65474177 -42.95401604 52.39377729 -42.4921875 48.7890625 C-41.22261227 40.37331762 -37.80795946 36.53023085 -31.46484375 31.23046875 C-28.61375111 28.67669676 -26.22860947 25.81660756 -23.8125 22.85546875 C-23.33554687 22.35917969 -22.85859375 21.86289062 -22.3671875 21.3515625 C-21.7071875 21.3515625 -21.0471875 21.3515625 -20.3671875 21.3515625 C-20.3671875 20.6915625 -20.3671875 20.0315625 -20.3671875 19.3515625 C-19.7071875 19.3515625 -19.0471875 19.3515625 -18.3671875 19.3515625 C-18.3671875 18.6915625 -18.3671875 18.0315625 -18.3671875 17.3515625 C-17.7071875 17.3515625 -17.0471875 17.3515625 -16.3671875 17.3515625 C-16.3671875 16.6915625 -16.3671875 16.0315625 -16.3671875 15.3515625 C-15.7071875 15.3515625 -15.0471875 15.3515625 -14.3671875 15.3515625 C-14.1196875 14.7328125 -13.8721875 14.1140625 -13.6171875 13.4765625 C-12.12978381 10.94797623 -10.93040741 10.63317246 -8.3671875 9.3515625 C-7.31697647 7.50184554 -7.31697647 7.50184554 -6.3671875 5.3515625 C-3.14818027 0.46755152 -3.14818027 0.46755152 0 0 Z M150.6328125 211.3515625 C149.94934568 213.01141048 149.28019043 214.67730922 148.6328125 216.3515625 C147.9728125 216.6196875 147.3128125 216.8878125 146.6328125 217.1640625 C144.23058664 218.30272227 144.23058664 218.30272227 143.3828125 221.8515625 C141.62873316 230.6061567 142.64605817 237.9957617 145.6328125 246.3515625 C146.2928125 246.3515625 146.9528125 246.3515625 147.6328125 246.3515625 C147.89320313 246.94582031 148.15359375 247.54007813 148.421875 248.15234375 C149.71050819 250.49266789 150.98091691 251.81752891 153.0078125 253.5390625 C153.88566406 254.30283203 153.88566406 254.30283203 154.78125 255.08203125 C160.96674822 259.3231429 171.25742957 257.97572554 178.37109375 256.9609375 C184.61825254 255.27776518 187.92857035 251.47608402 191.6328125 246.3515625 C192.839375 244.8046875 192.839375 244.8046875 194.0703125 243.2265625 C197.19776607 237.33720187 196.72014705 229.16334206 194.9375 222.9140625 C193.99337926 220.88301285 192.94696404 219.16362238 191.6328125 217.3515625 C191.19710937 216.73796875 190.76140625 216.124375 190.3125 215.4921875 C188.85751141 213.63171029 187.32606145 211.99688931 185.6328125 210.3515625 C185.1275 209.84109375 184.6221875 209.330625 184.1015625 208.8046875 C177.86174413 203.75610718 169.30271671 204.29516519 161.68798828 205.00878906 C157.15301536 205.76515661 153.59014677 207.87367704 150.6328125 211.3515625 Z " fill="#000100" transform="translate(692.3671875,350.6484375)"/>
<path d="M0 0 C3.92843807 0.55908502 4.80587147 1.68149072 7.2265625 4.75390625 C9.17873973 7.18824774 10.83561942 9.24357055 13.34375 11.109375 C13.92382812 11.54894531 14.50390625 11.98851562 15.1015625 12.44140625 C15.1015625 13.10140625 15.1015625 13.76140625 15.1015625 14.44140625 C16.184375 14.78171875 16.184375 14.78171875 17.2890625 15.12890625 C20.70837426 16.72458507 22.46652795 18.7249521 25.1015625 21.44140625 C26.28254407 22.60422146 27.46630713 23.76421623 28.65234375 24.921875 C29.90632635 26.15747461 31.16023133 27.39315298 32.4140625 28.62890625 C33.05923828 29.25732422 33.70441406 29.88574219 34.36914062 30.53320312 C35.28276367 31.4371582 35.28276367 31.4371582 36.21484375 32.359375 C37.04689331 33.17571411 37.04689331 33.17571411 37.89575195 34.00854492 C39.1015625 35.44140625 39.1015625 35.44140625 39.1015625 37.44140625 C41.0815625 37.93640625 41.0815625 37.93640625 43.1015625 38.44140625 C43.9140625 40.56640625 43.9140625 40.56640625 44.1015625 43.44140625 C42.68789671 45.85594741 41.11380697 47.42916178 39.1015625 49.44140625 C38.4415625 49.44140625 37.7815625 49.44140625 37.1015625 49.44140625 C37.1015625 50.10140625 37.1015625 50.76140625 37.1015625 51.44140625 C36.4415625 51.44140625 35.7815625 51.44140625 35.1015625 51.44140625 C34.71484375 52.31539063 34.71484375 52.31539063 34.3203125 53.20703125 C33.00322233 55.62169655 31.55067866 57.25880802 29.6015625 59.19140625 C28.993125 59.805 28.3846875 60.41859375 27.7578125 61.05078125 C26.1015625 62.44140625 26.1015625 62.44140625 24.1015625 62.44140625 C23.8128125 63.20453125 23.5240625 63.96765625 23.2265625 64.75390625 C22.1015625 67.44140625 22.1015625 67.44140625 20.1015625 70.44140625 C19.4415625 70.44140625 18.7815625 70.44140625 18.1015625 70.44140625 C18.1015625 71.10140625 18.1015625 71.76140625 18.1015625 72.44140625 C16.7815625 72.44140625 15.4615625 72.44140625 14.1015625 72.44140625 C14.1015625 73.76140625 14.1015625 75.08140625 14.1015625 76.44140625 C13.4415625 76.44140625 12.7815625 76.44140625 12.1015625 76.44140625 C12.1015625 77.10140625 12.1015625 77.76140625 12.1015625 78.44140625 C11.1115625 78.44140625 10.1215625 78.44140625 9.1015625 78.44140625 C8.8746875 79.18390625 8.6478125 79.92640625 8.4140625 80.69140625 C6.74100903 84.19685161 5.47303288 85.4747152 2.1015625 87.44140625 C-0.50684265 87.89736368 -3.04776179 88.12690303 -5.69140625 88.265625 C-7.93989239 88.30597154 -7.93989239 88.30597154 -9.8984375 89.44140625 C-12.2314241 89.48163016 -14.56550416 89.48460872 -16.8984375 89.44140625 C-16.8984375 88.78140625 -16.8984375 88.12140625 -16.8984375 87.44140625 C-17.5584375 87.44140625 -18.2184375 87.44140625 -18.8984375 87.44140625 C-18.8984375 86.78140625 -18.8984375 86.12140625 -18.8984375 85.44140625 C-19.5584375 85.44140625 -20.2184375 85.44140625 -20.8984375 85.44140625 C-20.8984375 84.78140625 -20.8984375 84.12140625 -20.8984375 83.44140625 C-21.5584375 83.44140625 -22.2184375 83.44140625 -22.8984375 83.44140625 C-22.8984375 82.78140625 -22.8984375 82.12140625 -22.8984375 81.44140625 C-23.5584375 81.44140625 -24.2184375 81.44140625 -24.8984375 81.44140625 C-28.8984375 76.97081801 -28.8984375 76.97081801 -28.8984375 74.44140625 C-29.5584375 74.44140625 -30.2184375 74.44140625 -30.8984375 74.44140625 C-32.26020672 72.79789168 -33.58805816 71.12617969 -34.8984375 69.44140625 C-38.13749296 65.89342822 -38.13749296 65.89342822 -42.1484375 63.37890625 C-42.7259375 63.06953125 -43.3034375 62.76015625 -43.8984375 62.44140625 C-44.2705417 61.11836908 -44.60473923 59.7840269 -44.8984375 58.44140625 C-45.8884375 57.78140625 -46.8784375 57.12140625 -47.8984375 56.44140625 C-49.32373731 54.30345654 -49.95152752 53.08366601 -49.73828125 50.50390625 C-48.55454179 47.59686236 -46.90951493 46.85729799 -44.2109375 45.31640625 C-43.31117188 44.80207031 -42.41140625 44.28773438 -41.484375 43.7578125 C-38.69778353 42.33926065 -35.85884779 41.42820968 -32.8984375 40.44140625 C-32.5684375 39.45140625 -32.2384375 38.46140625 -31.8984375 37.44140625 C-30.9084375 37.44140625 -29.9184375 37.44140625 -28.8984375 37.44140625 C-28.7746875 36.82265625 -28.6509375 36.20390625 -28.5234375 35.56640625 C-27.8984375 33.44140625 -27.8984375 33.44140625 -25.8984375 31.44140625 C-24.9084375 31.44140625 -23.9184375 31.44140625 -22.8984375 31.44140625 C-22.805625 30.60609375 -22.805625 30.60609375 -22.7109375 29.75390625 C-21.38583923 25.98247272 -18.37546545 23.72797534 -15.4140625 21.1484375 C-13.39483352 18.8742028 -12.31456344 16.44115554 -11.0234375 13.69140625 C-4.62443082 0.70425968 -4.62443082 0.70425968 0 0 Z " fill="#000100" transform="translate(587.8984375,252.55859375)"/>
</svg>
