<?xml version="1.0" encoding="UTF-8"?>
<!-- Generator: visioncortex VTracer 0.6.2 -->
<svg version="1.1" xmlns="http://www.w3.org/2000/svg" width="1280" height="1280">
<path d="M0 0 C1.7343712 -0.00115423 3.46874215 -0.00274377 5.2031126 -0.00472724 C9.93731077 -0.00887913 14.67148864 -0.00684869 19.40568686 -0.00374103 C24.52368395 -0.00147021 29.64167766 -0.0049749 34.75967407 -0.00772095 C44.77332809 -0.01215964 54.78697459 -0.01121062 64.8006289 -0.00830831 C72.94141721 -0.00604681 81.08220341 -0.00574499 89.22299194 -0.00683212 C90.3831289 -0.00698536 91.54326585 -0.00713859 92.73855847 -0.00729647 C95.09560402 -0.0076162 97.45264957 -0.00794042 99.80969512 -0.00826906 C121.89410931 -0.01111828 143.97851934 -0.00784556 166.06293285 -0.00246869 C184.9984189 0.00199884 203.93389882 0.00122275 222.86938477 -0.00338745 C244.87661369 -0.00874305 266.88383897 -0.01084364 288.89106846 -0.00777519 C291.23927879 -0.00745665 293.58748913 -0.00714228 295.93569946 -0.00683212 C297.66859278 -0.00660071 297.66859278 -0.00660071 299.43649405 -0.00636462 C307.56430218 -0.00550243 315.692108 -0.00695594 323.81991577 -0.00931168 C333.72955068 -0.0121208 343.63917767 -0.01134792 353.54881167 -0.00603093 C358.6015318 -0.00340895 363.65423875 -0.00236334 368.70695877 -0.00568008 C373.33812128 -0.00867406 377.96925846 -0.00699886 382.60041869 -0.00170253 C384.26983288 -0.00059154 385.93924923 -0.00114005 387.60866201 -0.00357832 C413.59358453 -0.03859998 413.59358453 -0.03859998 421.9543457 3.06448364 C427.99908811 5.11367335 433.84986996 5.8987932 440.16918945 6.43948364 C444.10943252 7.23385109 446.29870629 8.85845639 449.5793457 11.12698364 C452.58912165 12.07873319 452.58912165 12.07873319 455.6418457 12.62698364 C460.34081123 13.68598696 462.94449859 14.90754763 466.5793457 18.12698364 C467.7549707 18.45698364 468.9305957 18.78698364 470.1418457 19.12698364 C473.92427461 20.2273266 474.90962006 21.37382907 477.5793457 24.12698364 C478.78954333 24.6904903 480.02119259 25.20941449 481.2668457 25.68948364 C482.9065332 26.40104614 482.9065332 26.40104614 484.5793457 27.12698364 C484.9093457 28.11698364 485.2393457 29.10698364 485.5793457 30.12698364 C487.56570868 30.83324603 489.56782829 31.49591936 491.5793457 32.12698364 C493.9543457 33.62698364 493.9543457 33.62698364 495.5793457 35.12698364 C495.5793457 35.78698364 495.5793457 36.44698364 495.5793457 37.12698364 C496.3424707 37.39510864 497.1055957 37.66323364 497.8918457 37.93948364 C500.46923188 39.0783287 501.84889435 39.94115035 503.5793457 42.12698364 C503.5793457 42.78698364 503.5793457 43.44698364 503.5793457 44.12698364 C504.3630957 44.37448364 505.1468457 44.62198364 505.9543457 44.87698364 C509.04814472 46.35022127 509.14489106 47.16842095 510.5793457 50.12698364 C511.4043457 50.62198364 512.2293457 51.11698364 513.0793457 51.62698364 C515.9122429 53.32672196 516.21652122 54.23098161 517.5793457 57.12698364 C519.22302711 58.81632286 520.8936333 60.47958289 522.5793457 62.12698364 C526.40767281 66.22464029 529.14599222 70.03906273 531.5793457 75.12698364 C532.2393457 75.95198364 532.8993457 76.77698364 533.5793457 77.62698364 C535.73222039 80.31807701 537.06833537 83.03926688 538.5793457 86.12698364 C539.3527832 87.08604614 539.3527832 87.08604614 540.1418457 88.06448364 C541.5793457 90.12698364 541.5793457 90.12698364 542.5168457 93.50198364 C543.36844609 97.16166474 543.36844609 97.16166474 545.5793457 99.87698364 C547.99241698 103.79822447 548.43321104 107.11962004 548.98950195 111.63870239 C549.34234464 114.15423046 549.34234464 114.15423046 551.01293945 115.45901489 C555.78223414 120.53754066 555.18845427 130.62742379 555.61450195 137.23635864 C556.08354771 142.7410088 557.24086848 145.73425046 560.5793457 150.12698364 C560.5793457 150.78698364 560.5793457 151.44698364 560.5793457 152.12698364 C561.32366222 152.12606185 562.06797874 152.12514006 562.83485031 152.12419033 C581.0344021 152.10200399 599.23395116 152.08550861 617.43351364 152.07517147 C626.23505899 152.07003829 635.03659525 152.06305308 643.83813477 152.05154419 C651.51898939 152.04150558 659.19983744 152.03510862 666.88069844 152.03289515 C670.9390566 152.03160346 674.99739593 152.02861721 679.05574799 152.02125359 C734.45921743 151.92479121 734.45921743 151.92479121 741.9465332 156.60745239 C745.95420839 158.92048748 750.20271345 159.37286753 754.71606445 160.18557739 C757.5793457 161.12698364 757.5793457 161.12698364 758.7668457 163.18948364 C759.0349707 163.82885864 759.3030957 164.46823364 759.5793457 165.12698364 C761.90310262 165.52158387 764.23873921 165.84928457 766.5793457 166.12698364 C769.2043457 167.50198364 769.2043457 167.50198364 771.5793457 169.12698364 C774.25313771 170.77239411 776.87097655 172.26696645 779.7043457 173.62698364 C782.30049625 174.98149697 783.60547041 176.06728769 785.5793457 178.12698364 C786.3837207 178.60135864 787.1880957 179.07573364 788.0168457 179.56448364 C790.65803497 181.1749649 792.46806149 182.87948754 794.5793457 185.12698364 C795.3218457 185.82823364 796.0643457 186.52948364 796.8293457 187.25198364 C798.5793457 189.12698364 798.5793457 189.12698364 798.5793457 191.12698364 C799.3630957 191.37448364 800.1468457 191.62198364 800.9543457 191.87698364 C804.01876027 193.33622868 804.19660331 194.1771332 805.5793457 197.12698364 C806.2393457 197.43635864 806.8993457 197.74573364 807.5793457 198.06448364 C809.5793457 199.12698364 809.5793457 199.12698364 810.5168457 201.50198364 C811.86385898 204.82989881 813.77859658 205.94103311 816.5793457 208.12698364 C818.1418457 210.50198364 818.1418457 210.50198364 819.5793457 213.12698364 C820.2599707 214.11698364 820.9405957 215.10698364 821.6418457 216.12698364 C823.5793457 219.12698364 823.5793457 219.12698364 824.6418457 221.81448364 C825.40058244 224.15355394 825.40058244 224.15355394 827.0480957 225.49417114 C828.88531976 227.4532519 829.3174397 228.9884106 830.0168457 231.56448364 C830.93600645 234.57836336 831.34293479 235.8977367 833.6418457 238.12698364 C836.28113374 240.85141001 836.40204735 243.41781356 836.8918457 247.10354614 C837.38890525 249.31261853 837.38890525 249.31261853 839.5637207 250.22073364 C840.22887695 250.51979614 840.8940332 250.81885864 841.5793457 251.12698364 C843.15246981 254.74516909 843.5793457 257.14791717 843.5793457 261.12698364 C844.50553711 261.46922974 844.50553711 261.46922974 845.45043945 261.81838989 C848.23875567 263.53230904 848.60272031 265.001088 849.6418457 268.06448364 C850.86220592 271.62081234 851.94461947 273.51278774 854.5793457 276.12698364 C855.6418457 278.46682739 855.6418457 278.46682739 856.5793457 281.06448364 C857.85608938 284.59148806 859.29350345 287.16633157 861.5793457 290.12698364 C862.5793457 292.46031698 863.5793457 294.79365031 864.5793457 297.12698364 C865.0743457 297.76635864 865.5693457 298.40573364 866.0793457 299.06448364 C867.5481296 301.0840615 868.19974691 302.66552278 869.0168457 305.00198364 C870.35590562 308.80773288 872.32220823 311.77768288 874.5793457 315.12698364 C875.24601237 317.12698364 875.91267904 319.12698364 876.5793457 321.12698364 C877.0640332 321.58846802 877.5487207 322.04995239 878.0480957 322.52542114 C879.90151652 324.46394802 880.31857821 325.99260398 881.0168457 328.56448364 C881.93600645 331.57836336 882.34293479 332.8977367 884.6418457 335.12698364 C887.29724414 337.86804009 887.45022941 340.49900549 887.98950195 344.20120239 C888.18415039 344.83671021 888.37879883 345.47221802 888.5793457 346.12698364 C889.5693457 346.45698364 890.5593457 346.78698364 891.5793457 347.12698364 C892.52856445 348.86917114 892.52856445 348.86917114 893.2668457 351.00198364 C893.51821289 351.70065552 893.76958008 352.39932739 894.02856445 353.11917114 C894.5793457 355.12698364 894.5793457 355.12698364 894.5793457 358.12698364 C895.2084082 358.35514771 895.8374707 358.58331177 896.4855957 358.81838989 C898.5793457 360.12698364 898.5793457 360.12698364 899.4855957 362.40432739 C899.6815332 363.28217896 899.8774707 364.16003052 900.0793457 365.06448364 C900.87790621 368.94831708 900.87790621 368.94831708 903.6105957 371.62698364 C905.5793457 373.12698364 905.5793457 373.12698364 906.2668457 375.53713989 C906.47548166 377.3079376 906.68381413 379.07877108 906.8918457 380.84963989 C907.1187207 381.60116333 907.3455957 382.35268677 907.5793457 383.12698364 C908.90346003 383.81177812 910.2374996 384.47762145 911.5793457 385.12698364 C912.73950195 387.40432739 912.73950195 387.40432739 913.6418457 390.06448364 C914.86220592 393.62081234 915.94461947 395.51278774 918.5793457 398.12698364 C919.6418457 400.46682739 919.6418457 400.46682739 920.5793457 403.06448364 C921.85608938 406.59148806 923.29350345 409.16633157 925.5793457 412.12698364 C926.5793457 414.46031698 927.5793457 416.79365031 928.5793457 419.12698364 C929.0743457 419.76635864 929.5693457 420.40573364 930.0793457 421.06448364 C931.94251205 423.62633737 932.76854261 426.22562405 933.7355957 429.22463989 C934.47376204 431.20499947 934.47376204 431.20499947 936.08325195 432.59963989 C937.92112838 434.47590538 938.32534733 435.98510135 939.0168457 438.50198364 C940.23843432 442.48822017 941.93714811 444.88816079 944.5793457 448.12698364 C944.9093457 449.30260864 945.2393457 450.47823364 945.5793457 451.68948364 C946.27168371 455.15762215 946.27168371 455.15762215 948.5793457 457.00198364 C951.25088681 459.84049607 951.43840771 462.41784754 951.98950195 466.20120239 C952.18415039 466.83671021 952.37879883 467.47221802 952.5793457 468.12698364 C953.5693457 468.45698364 954.5593457 468.78698364 955.5793457 469.12698364 C956.52856445 470.86917114 956.52856445 470.86917114 957.2668457 473.00198364 C957.51821289 473.70065552 957.76958008 474.39932739 958.02856445 475.11917114 C958.5793457 477.12698364 958.5793457 477.12698364 958.5793457 480.12698364 C959.20325195 480.36417114 959.8271582 480.60135864 960.4699707 480.84573364 C963.15458436 482.47638786 963.46091748 483.65502929 964.3293457 486.62698364 C964.57168945 487.42104614 964.8140332 488.21510864 965.0637207 489.03323364 C965.5793457 491.12698364 965.5793457 491.12698364 965.5793457 493.12698364 C966.5693457 493.45698364 967.5593457 493.78698364 968.5793457 494.12698364 C969.52856445 496.30667114 969.52856445 496.30667114 970.2668457 499.00198364 C970.51821289 499.88628052 970.76958008 500.77057739 971.02856445 501.68167114 C971.5793457 504.12698364 971.5793457 504.12698364 971.5793457 507.12698364 C972.5693457 507.45698364 973.5593457 507.78698364 974.5793457 508.12698364 C976.4962065 511.79545861 976.97592451 515.36313978 977.4543457 519.43948364 C978.14022881 524.32297136 979.20847995 527.81793786 981.6399231 532.0528717 C984.60783376 538.6055977 983.7284882 547.27228054 983.7121582 554.34182739 C983.71359329 555.74640953 983.71359329 555.74640953 983.71505737 557.17936707 C983.71573294 559.14489815 983.71392252 561.11043155 983.7097168 563.07595825 C983.70436579 566.05330513 983.70968005 569.03050078 983.71606445 572.00784302 C983.72812354 597.59655654 983.72812354 597.59655654 979.62231445 604.68167114 C977.8708461 608.78811006 977.34398269 613.18017772 976.70678711 617.58084106 C976.08564487 621.54407097 975.47748038 623.43533184 972.5793457 626.12698364 C971.45842625 629.20658688 971.45842625 629.20658688 970.5793457 632.62698364 C969.45934749 636.77097704 968.73330893 639.24406413 965.5793457 642.12698364 C964.47864643 644.2539495 964.47864643 644.2539495 963.5793457 646.56448364 C962.20551841 649.80316396 960.77087324 652.36375327 958.5793457 655.12698364 C958.0843457 656.15823364 957.5893457 657.18948364 957.0793457 658.25198364 C955.5793457 661.12698364 955.5793457 661.12698364 952.5793457 663.12698364 C952.1049707 664.07573364 951.6305957 665.02448364 951.1418457 666.00198364 C949.59728646 669.09110213 948.07166272 670.79546127 945.5793457 673.12698364 C944.9193457 674.11698364 944.2593457 675.10698364 943.5793457 676.12698364 C942.9193457 676.12698364 942.2593457 676.12698364 941.5793457 676.12698364 C941.5793457 676.78698364 941.5793457 677.44698364 941.5793457 678.12698364 C940.9193457 678.12698364 940.2593457 678.12698364 939.5793457 678.12698364 C939.31508789 678.71737427 939.05083008 679.30776489 938.77856445 679.91604614 C935.62259411 685.73454522 929.04471891 691.43379829 923.5793457 695.12698364 C922.5893457 695.12698364 921.5993457 695.12698364 920.5793457 695.12698364 C920.5587207 695.70448364 920.5380957 696.28198364 920.5168457 696.87698364 C919.25280924 699.91067115 917.22713789 700.68243986 914.3684082 702.09963989 C912.51706504 703.05671766 912.51706504 703.05671766 911.1027832 704.62307739 C908.8907233 706.80677755 906.31917934 707.79069563 903.5168457 709.06448364 C901.52421444 710.03123619 901.52421444 710.03123619 900.1105957 711.65823364 C897.71330179 713.95767883 894.87453137 714.40433166 891.7355957 715.28323364 C889.52416369 715.97032211 889.52416369 715.97032211 888.1730957 717.62698364 C885.27212868 720.35730554 881.19343226 720.50055406 877.3918457 721.28323364 C874.58590779 721.86912773 874.58590779 721.86912773 873.16845703 723.62698364 C871.19779647 725.48713704 870.00586872 725.64439565 867.34106445 725.97073364 C866.52057617 726.08288208 865.70008789 726.19503052 864.85473633 726.31057739 C864.00073242 726.41499146 863.14672852 726.51940552 862.2668457 726.62698364 C856.37451081 727.35732661 851.86745171 728.25782367 846.5793457 731.12698364 C825.47076173 736.71786614 799.29518725 733.24580159 777.59729004 733.19564819 C772.62191192 733.18527041 767.64652848 733.18082014 762.67114258 733.17581177 C752.97386326 733.1652064 743.27660716 733.14822411 733.5793457 733.12698364 C733.52388077 733.75233505 733.46841583 734.37768646 733.41127014 735.02198792 C733.29156105 736.24656456 733.29156105 736.24656456 733.16943359 737.49588013 C733.09334366 738.30685654 733.01725372 739.11783295 732.93885803 739.9533844 C732.48667964 742.68723948 731.317846 744.00505471 729.5793457 746.12698364 C728.65942299 749.25751912 727.90442508 752.36698037 727.20629883 755.55081177 C726.136879 760.01194805 724.57744279 762.69973549 721.5793457 766.12698364 C720.8368457 767.85948364 720.8368457 767.85948364 720.0793457 769.62698364 C718.60709351 773.06223876 716.96783237 775.29065573 714.5793457 778.12698364 C714.0843457 778.97260864 713.5893457 779.81823364 713.0793457 780.68948364 C711.49926715 783.25711129 709.77259705 785.07081051 707.5793457 787.12698364 C707.0637207 787.64260864 706.5480957 788.15823364 706.0168457 788.68948364 C704.53767904 790.16865031 703.05851237 791.64781698 701.5793457 793.12698364 C701.14235352 793.58073364 700.70536133 794.03448364 700.25512695 794.50198364 C695.2762831 799.32995344 689.8309783 803.15001574 683.5793457 806.12698364 C683.12172852 806.61682739 682.66411133 807.10667114 682.19262695 807.61135864 C680.25138158 809.43509522 678.6905556 809.9049208 676.1418457 810.62698364 C673.56567137 811.35929716 671.85277316 811.89823387 669.78637695 813.62698364 C666.66427593 815.74890717 663.36248453 816.08329696 659.7043457 816.62698364 C654.39190092 817.42532878 650.40162767 818.62128811 645.5793457 821.12698364 C642.26973674 821.82627199 638.95531466 821.96646209 635.5793457 822.12698364 C634.38631836 822.18885864 634.38631836 822.18885864 633.16918945 822.25198364 C625.49614561 822.45160755 616.07662405 822.45850254 609.5793457 818.12698364 C606.24546978 817.47172941 602.92249042 816.92505338 599.55981445 816.44729614 C594.789503 815.66556913 592.29162599 814.37443295 588.5793457 811.12698364 C586.30314097 810.18560757 586.30314097 810.18560757 584.0168457 809.62698364 C580.18122188 808.46678668 578.29158014 807.12981463 575.5793457 804.12698364 C574.7130957 803.79698364 573.8468457 803.46698364 572.9543457 803.12698364 C570.01399309 801.88894044 569.95550907 800.87931038 568.5793457 798.12698364 C566.18865836 797.02061969 566.18865836 797.02061969 563.5793457 796.12698364 C561.2668457 794.62698364 561.2668457 794.62698364 559.5793457 793.12698364 C559.5793457 792.46698364 559.5793457 791.80698364 559.5793457 791.12698364 C558.5893457 790.79698364 557.5993457 790.46698364 556.5793457 790.12698364 C556.5793457 789.46698364 556.5793457 788.80698364 556.5793457 788.12698364 C555.5893457 787.79698364 554.5993457 787.46698364 553.5793457 787.12698364 C552.33325195 785.41995239 552.33325195 785.41995239 551.1418457 783.31448364 C549.65011945 780.78170372 548.45711452 779.00814777 546.3293457 776.93948364 C544.5793457 775.12698364 544.5793457 775.12698364 544.0793457 772.50198364 C543.9143457 771.71823364 543.7493457 770.93448364 543.5793457 770.12698364 C542.94125977 769.84983521 542.30317383 769.57268677 541.64575195 769.28713989 C539.5793457 768.12698364 539.5793457 768.12698364 538.63793945 765.84963989 C538.43297852 764.97178833 538.22801758 764.09393677 538.0168457 763.18948364 C537.1354475 759.47228252 536.3388395 757.72629574 533.5793457 755.12698364 C531.2120019 748.02495222 531.17578477 741.88069154 530.5793457 734.12698364 C424.3193457 734.12698364 318.0593457 734.12698364 208.5793457 734.12698364 C207.5893457 736.43698364 206.5993457 738.74698364 205.5793457 741.12698364 C205.20551758 741.98292114 204.83168945 742.83885864 204.4465332 743.72073364 C203.49353965 746.36507612 203.0872098 748.84535878 202.7043457 751.62698364 C201.91574696 756.2778534 200.74636418 758.57608414 197.5793457 762.12698364 C197.03753254 763.50712464 196.53989821 764.90514263 196.0793457 766.31448364 C194.8329181 769.98528142 194.8329181 769.98528142 192.4543457 771.31448364 C191.8355957 771.58260864 191.2168457 771.85073364 190.5793457 772.12698364 C190.46333008 772.84499146 190.34731445 773.56299927 190.2277832 774.30276489 C189.38021936 777.99426284 187.63391368 780.13562389 185.3293457 783.12698364 C184.56106445 784.13760864 183.7927832 785.14823364 183.0012207 786.18948364 C176.84391135 793.65770402 167.9679049 801.99746391 158.5793457 805.12698364 C157.7749707 806.05510864 157.7749707 806.05510864 156.9543457 807.00198364 C154.04539311 809.6047307 151.41903069 810.30878924 147.70043945 811.31838989 C145.51841451 811.95343756 145.51841451 811.95343756 144.3215332 813.62307739 C141.47274367 816.08223428 137.88352884 816.12919038 134.2668457 816.62698364 C128.73680927 817.39994818 124.58041954 818.49521287 119.5793457 821.12698364 C116.26973674 821.82627199 112.95531466 821.96646209 109.5793457 822.12698364 C108.38631836 822.18885864 108.38631836 822.18885864 107.16918945 822.25198364 C99.49614561 822.45160755 90.07662405 822.45850254 83.5793457 818.12698364 C80.90841469 817.56110843 78.27095416 817.06281348 75.5793457 816.62698364 C67.98475111 815.39725391 67.98475111 815.39725391 64.5793457 813.12698364 C64.5793457 812.46698364 64.5793457 811.80698364 64.5793457 811.12698364 C63.89227539 811.01741333 63.20520508 810.90784302 62.49731445 810.79495239 C61.59625977 810.63639771 60.69520508 810.47784302 59.7668457 810.31448364 C58.87352539 810.16366333 57.98020508 810.01284302 57.05981445 809.85745239 C54.37402596 809.0665194 53.25721249 808.33998402 51.5793457 806.12698364 C51.5793457 805.46698364 51.5793457 804.80698364 51.5793457 804.12698364 C50.3418457 804.09604614 50.3418457 804.09604614 49.0793457 804.06448364 C42.16956428 802.21364933 37.51477525 796.06241318 32.5793457 791.12698364 C31.7749707 790.52885864 30.9705957 789.93073364 30.1418457 789.31448364 C24.84235272 784.79052622 21.25597965 778.77440573 17.66918945 772.86135864 C16.56611466 771.02829127 16.56611466 771.02829127 14.9543457 769.12698364 C13.22366067 766.60962359 12.37182406 764.01834626 11.4230957 761.12698364 C10.66034335 759.04638438 10.66034335 759.04638438 9.08325195 757.33792114 C6.99868483 754.27333675 6.65178986 751.38749245 6.0168457 747.75198364 C5.17963857 743.03145978 4.13994188 738.65650914 2.5793457 734.12698364 C1.73339844 734.10192749 0.88745117 734.07687134 0.01586914 734.05105591 C-3.18245647 733.95479181 -6.38067734 733.85564459 -9.57885742 733.75466919 C-10.95186986 733.71188274 -12.32491659 733.67018038 -13.69799805 733.62966919 C-38.48770478 732.8957634 -38.48770478 732.8957634 -45.79956055 729.16604614 C-49.92558036 727.53039596 -54.28302844 726.94927284 -58.66186523 726.34231567 C-63.50290113 725.59013705 -66.45529472 723.91434937 -70.4206543 721.12698364 C-72.77841274 720.39609923 -72.77841274 720.39609923 -75.0456543 720.12698364 C-79.13839614 719.35874473 -80.51333932 718.12515222 -83.4206543 715.12698364 C-85.72399686 714.29129437 -88.02189713 713.63298213 -90.3972168 713.03323364 C-92.99385624 711.87025999 -93.22128686 710.62483979 -94.4206543 708.12698364 C-95.5756543 707.79698364 -96.7306543 707.46698364 -97.9206543 707.12698364 C-99.0756543 706.79698364 -100.2306543 706.46698364 -101.4206543 706.12698364 C-102.12002962 704.81051246 -102.78794563 703.47676213 -103.4206543 702.12698364 C-104.3075293 701.83823364 -105.1944043 701.54948364 -106.1081543 701.25198364 C-112.46972109 699.09145153 -116.75560822 693.79202972 -121.4206543 689.12698364 C-122.2456543 688.46698364 -123.0706543 687.80698364 -123.9206543 687.12698364 C-127.91954337 683.92787239 -131.60270641 680.428062 -134.4206543 676.12698364 C-134.4206543 675.46698364 -134.4206543 674.80698364 -134.4206543 674.12698364 C-135.01620117 673.88979614 -135.61174805 673.65260864 -136.2253418 673.40823364 C-138.90337884 671.84525117 -139.91978857 670.24879854 -141.5456543 667.62698364 C-143.0790181 665.17995746 -144.37412967 663.17350827 -146.4206543 661.12698364 C-146.7094043 660.36385864 -146.9981543 659.60073364 -147.2956543 658.81448364 C-148.29977547 656.02421243 -148.29977547 656.02421243 -150.4206543 653.81448364 C-152.36437987 651.2026024 -152.83102719 649.95129714 -153.4831543 646.87698364 C-153.7925293 645.63948364 -154.1019043 644.40198364 -154.4206543 643.12698364 C-155.4106543 642.79698364 -156.4006543 642.46698364 -157.4206543 642.12698364 C-158.4831543 639.54495239 -158.4831543 639.54495239 -159.4206543 636.31448364 C-160.634246 631.97431566 -160.634246 631.97431566 -162.95581055 628.19338989 C-165.04459612 625.24680971 -165.28064255 622.42096874 -165.8581543 618.87698364 C-166.60709314 614.5923568 -167.34771017 610.68569548 -169.5456543 606.87698364 C-174.7468394 597.7053135 -172.56422415 584.10249599 -172.55436707 573.81465149 C-172.5562374 571.95897495 -172.55853899 570.1032988 -172.56123239 568.24762326 C-172.5673291 563.16879198 -172.56721931 558.0899772 -172.56603801 553.01114309 C-172.56583347 547.52567059 -172.57135783 542.04020332 -172.57609558 536.55473328 C-172.58439071 525.81589334 -172.5871499 515.0770589 -172.58770796 504.33821603 C-172.5881836 495.60766663 -172.59024076 486.87711903 -172.59340858 478.14657021 C-172.60078006 457.40796894 -172.60693376 436.66936888 -172.60641003 415.93076611 C-172.60639445 415.26815822 -172.60637887 414.60555034 -172.60636282 413.92286343 C-172.60627972 410.56478682 -172.60618068 407.20671022 -172.60607811 403.84863361 C-172.60605817 403.18175326 -172.60603822 402.51487291 -172.60601767 401.82778407 C-172.60597723 400.47919121 -172.60593544 399.13059834 -172.60589228 397.78200548 C-172.60527956 376.80120677 -172.61278704 355.82042422 -172.62646484 334.83963013 C-172.64183917 311.24697903 -172.65041761 287.65433568 -172.64950162 264.06167871 C-172.64916986 251.57749561 -172.6519081 239.09333075 -172.66267967 226.60915184 C-172.67179122 215.98107703 -172.67395447 205.35302873 -172.66717025 194.72495171 C-172.66390855 189.30553421 -172.66383581 183.88616755 -172.6725235 178.46675491 C-172.68040464 173.49927825 -172.67894058 168.5318926 -172.67023937 163.56441811 C-172.66870795 161.77379594 -172.67050692 159.98316692 -172.67609944 158.19255283 C-172.75370101 131.56869376 -172.75370101 131.56869376 -167.4206543 123.12698364 C-166.56786411 119.37388286 -165.97165947 115.61783981 -165.36206055 111.81838989 C-164.34830806 107.84330235 -162.75767364 105.459062 -160.4206543 102.12698364 C-159.44819643 99.50899336 -159.44819643 99.50899336 -158.8581543 96.93948364 C-157.96310138 93.32035662 -157.08805732 91.67781635 -154.4206543 89.12698364 C-153.45865668 87.20059115 -153.45865668 87.20059115 -152.6706543 85.06448364 C-150.37948211 79.65625161 -146.86069095 71.84700197 -141.4206543 69.12698364 C-141.17959961 68.42573364 -140.93854492 67.72448364 -140.69018555 67.00198364 C-138.91103471 62.97289128 -136.13881561 60.2753732 -133.1081543 57.12698364 C-132.5390332 56.52370239 -131.96991211 55.92042114 -131.38354492 55.29885864 C-128.11879239 51.85044035 -124.78136349 48.48198704 -121.4206543 45.12698364 C-120.8122168 44.47213989 -120.2037793 43.81729614 -119.5769043 43.14260864 C-115.06483597 38.33257354 -115.06483597 38.33257354 -111.4831543 37.18948364 C-110.8025293 37.16885864 -110.1219043 37.14823364 -109.4206543 37.12698364 C-109.33299805 36.51983521 -109.2453418 35.91268677 -109.1550293 35.28713989 C-108.21396989 32.51902367 -107.17932811 31.99329598 -104.6706543 30.56448364 C-103.94749023 30.14553833 -103.22432617 29.72659302 -102.47924805 29.29495239 C-101.79991211 28.90952271 -101.12057617 28.52409302 -100.4206543 28.12698364 C-99.0903418 27.26073364 -99.0903418 27.26073364 -97.7331543 26.37698364 C-95.4206543 25.12698364 -95.4206543 25.12698364 -92.7331543 24.68948364 C-91.9700293 24.50385864 -91.2069043 24.31823364 -90.4206543 24.12698364 C-90.00493164 23.18338989 -90.00493164 23.18338989 -89.58081055 22.22073364 C-88.02047966 19.40478296 -86.54897167 19.09381052 -83.5456543 18.06448364 C-80.84189327 17.12422048 -78.73369437 16.3727641 -76.4753418 14.59963989 C-73.11803975 12.19336067 -69.2824752 11.80796603 -65.2956543 10.97073364 C-62.42622388 10.32506685 -62.42622388 10.32506685 -60.53710938 8.62698364 C-58.11934208 6.91343395 -56.60437396 6.60934594 -53.68237305 6.28323364 C-52.77938477 6.17108521 -51.87639648 6.05893677 -50.94604492 5.94338989 C-50.00954102 5.83897583 -49.07303711 5.73456177 -48.1081543 5.62698364 C-40.89223186 4.87633643 -40.89223186 4.87633643 -34.06518555 2.59573364 C-23.78586836 -1.5468422 -10.98859897 -0.01604947 0 0 Z M-51.6706543 38.62698364 C-54.44844549 40.14214248 -56.39436044 40.55345333 -59.4831543 41.06448364 C-63.88165527 41.83954989 -65.31318357 42.92240445 -68.4206543 46.12698364 C-71.01896753 46.97070086 -73.60982341 47.6273551 -76.27612305 48.22073364 C-76.98381836 48.51979614 -77.69151367 48.81885864 -78.4206543 49.12698364 C-79.2967138 51.14750866 -79.2967138 51.14750866 -79.4206543 53.12698364 C-80.4725293 53.35385864 -81.5244043 53.58073364 -82.6081543 53.81448364 C-86.62606023 54.95208352 -88.57889207 57.06662432 -91.4206543 60.12698364 C-93.40833823 61.47860872 -95.40728899 62.81391931 -97.4206543 64.12698364 C-99.00398763 65.54365031 -99.00398763 65.54365031 -100.4206543 67.12698364 C-101.3075293 67.97260864 -102.1944043 68.81823364 -103.1081543 69.68948364 C-105.65007444 71.80881821 -105.65007444 71.80881821 -105.4206543 74.12698364 C-106.02780273 74.21206177 -106.63495117 74.29713989 -107.26049805 74.38479614 C-110.06006904 75.34667406 -110.56602057 76.44833673 -111.9831543 79.00198364 C-113.5629853 81.80942104 -115.11794295 83.88519059 -117.4206543 86.12698364 C-118.1012793 87.15823364 -118.7819043 88.18948364 -119.4831543 89.25198364 C-121.4206543 92.12698364 -121.4206543 92.12698364 -123.4206543 93.12698364 C-124.26131062 95.08998218 -124.88582777 97.08769235 -125.54174805 99.11917114 C-126.4206543 101.12698364 -126.4206543 101.12698364 -127.9284668 102.54885864 C-130.48387788 105.25144 -130.70212779 108.78956071 -131.47924805 112.33792114 C-132.4206543 115.12698364 -132.4206543 115.12698364 -134.4206543 117.41995239 C-137.16789646 121.13838759 -137.43439337 124.55285853 -137.9831543 129.06448364 C-138.18315011 130.63735397 -138.39261626 132.20905238 -138.61206055 133.77932739 C-138.69657471 134.47018433 -138.78108887 135.16104126 -138.86816406 135.87283325 C-139.4206543 138.12698364 -139.4206543 138.12698364 -140.91271222 140.87530142 C-145.50757334 150.78352563 -143.56357881 164.76307568 -143.54763794 175.62992859 C-143.54879246 177.36103804 -143.5503822 179.09214725 -143.55236518 180.82325596 C-143.55651301 185.54379323 -143.55448851 190.26431011 -143.55137897 194.98484743 C-143.54910648 200.08987523 -143.55261365 205.19489964 -143.55535889 210.29992676 C-143.55979572 220.28603809 -143.55884943 230.2721419 -143.55594625 240.25825352 C-143.55368414 248.37661135 -143.55338319 256.49496707 -143.55447006 264.61332512 C-143.5546233 265.77055122 -143.55477653 266.92777733 -143.5549344 268.12007089 C-143.55525414 270.4712379 -143.55557836 272.82240492 -143.555907 275.17357194 C-143.55875564 297.19837892 -143.55548434 319.22318174 -143.55010663 341.24798804 C-143.54563856 360.13172759 -143.54641574 379.015461 -143.55102539 397.89920044 C-143.55638099 419.84893788 -143.55848163 441.79867168 -143.55541313 463.74840969 C-143.55509459 466.09042577 -143.55478022 468.43244185 -143.55447006 470.77445793 C-143.55431579 471.92666105 -143.55416151 473.07886416 -143.55400256 474.26598253 C-143.55314041 482.37176088 -143.55459377 490.47753691 -143.55694962 498.5833149 C-143.55975872 508.46547722 -143.55898589 518.3476316 -143.55366887 528.22979302 C-143.55104695 533.26834325 -143.55000118 538.30688025 -143.55331802 543.34543037 C-143.55631208 547.96360005 -143.55463665 552.58174432 -143.54934047 557.19991171 C-143.54822952 558.8645854 -143.54877789 560.52926127 -143.55121626 562.19393355 C-144.01324481 580.27309223 -144.01324481 580.27309223 -139.39331055 597.45120239 C-138.19378263 600.75110851 -137.82563652 603.89267717 -137.4206543 607.37698364 C-136.76269391 612.78041054 -135.71549198 615.73386673 -132.4206543 620.12698364 C-131.873314 621.82074318 -131.37696564 623.53146548 -130.9206543 625.25198364 C-129.79480194 629.3576735 -128.60151409 631.24432945 -125.4206543 634.12698364 C-124.40535889 636.45370229 -123.40577232 638.78732834 -122.4206543 641.12698364 C-121.10199158 642.80528165 -119.76984962 644.47313131 -118.4206543 646.12698364 C-118.1112793 646.95198364 -117.8019043 647.77698364 -117.4831543 648.62698364 C-116.0867795 651.9125714 -114.02262024 653.71087241 -111.4206543 656.12698364 C-110.6987793 656.89010864 -109.9769043 657.65323364 -109.2331543 658.43948364 C-107.58943157 660.35412315 -107.58943157 660.35412315 -105.4206543 660.12698364 C-105.1731543 660.91073364 -104.9256543 661.69448364 -104.6706543 662.50198364 C-103.21140926 665.56639821 -102.37050473 665.74424125 -99.4206543 667.12698364 C-99.1319043 667.78698364 -98.8431543 668.44698364 -98.5456543 669.12698364 C-97.52508707 671.46540324 -97.52508707 671.46540324 -94.4206543 672.12698364 C-93.4306543 672.45698364 -92.4406543 672.78698364 -91.4206543 673.12698364 C-90.9565918 674.08411255 -90.9565918 674.08411255 -90.4831543 675.06057739 C-89.15673583 677.64026626 -88.05190699 678.07216862 -85.4206543 679.18948364 C-82.15704742 680.58731527 -81.50338415 681.00288886 -79.4206543 684.12698364 C-77.41242784 685.24579572 -77.41242784 685.24579572 -75.1081543 686.12698364 C-72.55097065 687.19450634 -70.3218629 688.19031146 -67.9831543 689.68948364 C-64.70292913 691.52960996 -61.35752417 692.35586793 -57.7253418 693.28323364 C-55.4206543 694.12698364 -55.4206543 694.12698364 -54.04858398 695.62698364 C-52.02213177 697.49418857 -50.78230871 697.64837124 -48.0690918 697.97073364 C-47.21702148 698.08288208 -46.36495117 698.19503052 -45.48706055 698.31057739 C-44.59889648 698.41499146 -43.71073242 698.51940552 -42.7956543 698.62698364 C-37.68241777 699.24422978 -32.91087669 699.84217604 -28.08862305 701.70901489 C-22.27493803 703.78790226 -16.45960243 703.45179263 -10.3581543 703.31448364 C-8.63048828 703.29418091 -8.63048828 703.29418091 -6.86791992 703.27346802 C-4.05166458 703.2384109 -1.23641665 703.1892722 1.5793457 703.12698364 C5.76032464 695.36540369 5.76032464 695.36540369 7.6418457 686.81448364 C8.2930051 681.98607529 9.30406006 679.79927361 12.5793457 676.12698364 C13.13001451 674.64483525 13.62569114 673.14164451 14.0793457 671.62698364 C15.28136543 667.68955686 16.858591 665.25997391 19.5793457 662.12698364 C20.28910947 660.93159204 20.97577727 659.7222617 21.6418457 658.50198364 C23.22508736 655.74407882 24.26915033 654.15995557 26.5793457 652.12698364 C29.18146581 649.59334038 31.58865148 647.11509293 33.8293457 644.25198364 C38.36217594 638.71504544 43.96685986 634.72553577 50.5793457 632.12698364 C51.5074707 631.16792114 51.5074707 631.16792114 52.4543457 630.18948364 C55.19486768 627.52956525 58.05546913 626.54889875 61.5793457 625.12698364 C62.34504883 624.63327271 63.11075195 624.13956177 63.8996582 623.63088989 C66.9436358 621.92253512 69.59974802 621.30315845 73.0168457 620.62698364 C76.62614302 619.85904804 79.42150372 619.20906147 82.7043457 617.50198364 C93.09380219 612.53311315 112.44110271 613.86997559 123.5793457 616.12698364 C125.61341675 617.01664478 127.4850706 618.046167 129.4074707 619.15432739 C132.17146607 620.39215985 134.7705047 620.72138138 137.7668457 621.12698364 C142.61965498 621.81850896 144.92580082 622.76967213 148.5793457 626.12698364 C149.99760561 626.81403951 151.43817786 627.45591422 152.8918457 628.06448364 C162.68956291 632.24029346 170.19677406 638.5501338 177.5793457 646.12698364 C178.3837207 646.91073364 179.1880957 647.69448364 180.0168457 648.50198364 C184.95253819 653.55805887 188.4083534 657.30386497 190.5793457 664.12698364 C191.2187207 664.56010864 191.8580957 664.99323364 192.5168457 665.43948364 C195.40637323 667.80364253 195.8224403 670.43665295 196.77075195 673.97073364 C197.40834086 676.18440801 197.40834086 676.18440801 199.07543945 677.44729614 C201.39920779 680.04267377 201.55776917 683.16646951 202.0793457 686.50198364 C202.83796045 691.29717809 203.83216826 695.04826611 206.5793457 699.12698364 C207.25820627 700.45415 207.92694857 701.78661048 208.5793457 703.12698364 C248.94624904 703.1498484 289.31315154 703.16748104 329.68006006 703.17804897 C334.44051531 703.17929975 339.20097055 703.18059407 343.96142578 703.18191528 C344.90918835 703.18217759 345.85695093 703.1824399 346.83343358 703.18271016 C362.20046011 703.18706721 377.56748292 703.19495494 392.93450724 703.20413644 C408.69027474 703.21347203 424.44604027 703.21903905 440.20181042 703.22107214 C449.9321062 703.22244756 459.66239145 703.2267992 469.39268399 703.23490011 C476.05567989 703.2401664 482.71867031 703.24178821 489.38166814 703.24048502 C493.23183087 703.23984146 497.08197514 703.24086121 500.93213463 703.24618912 C505.09628379 703.2519098 509.26039313 703.24998489 513.42454529 703.24723816 C514.65506306 703.250151 515.88558082 703.25306384 517.15338701 703.25606495 C518.25961446 703.2540739 519.3658419 703.25208285 520.50559139 703.25003147 C521.46818243 703.25041119 522.43077347 703.25079091 523.42253393 703.25118214 C525.56005436 703.36803713 525.56005436 703.36803713 526.5793457 702.12698364 C526.67932793 699.2124913 526.71293689 696.32163336 526.70518684 693.40663624 C526.70664028 692.4760061 526.70809373 691.54537596 526.70959121 690.5865449 C526.71327909 687.4266535 526.70975194 684.26680949 526.70632935 681.10691833 C526.70748008 678.83501812 526.70906729 676.56311809 526.71105659 674.29121846 C526.71525683 668.01543109 526.71315607 661.7396588 526.71007037 655.46387136 C526.70805 649.40047793 526.71069984 643.33708821 526.71321774 637.27369527 C526.71849576 624.09595269 526.71802197 610.91821494 526.71513882 597.7404719 C526.71262637 586.20051272 526.7119651 574.66055532 526.71316147 563.12059593 C526.71323785 562.35604665 526.71331424 561.59149737 526.71339294 560.80377992 C526.71370427 557.70032671 526.71402267 554.5968735 526.7143527 551.4934203 C526.71741528 522.34724832 526.7146333 493.20107943 526.70925581 464.05490793 C526.704516 438.16836836 526.70492923 412.28183371 526.7097168 386.39529419 C526.71507553 357.32312084 526.71719193 328.25095022 526.71410453 299.17877644 C526.71378382 296.07684306 526.71347098 292.97490968 526.71316147 289.8729763 C526.71308239 289.10918451 526.71300331 288.34539272 526.71292184 287.55845572 C526.71178545 276.03563123 526.71311276 264.51280872 526.71564102 252.98998451 C526.71850427 239.87485264 526.71777724 226.75972636 526.71236028 213.64459518 C526.70968757 206.95339487 526.70869832 200.26220577 526.71200943 193.57100487 C526.71499682 187.44108772 526.7133389 181.31118974 526.70803188 175.18127432 C526.70691804 172.9677456 526.70747587 170.75421526 526.70990767 168.5406876 C528.10664898 146.36571235 528.10664898 146.36571235 522.0793457 125.87698364 C520.48475264 122.95356302 520.13140962 120.83546377 519.6418457 117.56448364 C518.904969 112.95286358 518.05291607 111.28477488 514.5793457 108.12698364 C513.79418945 106.07620239 513.79418945 106.07620239 513.0793457 103.68948364 C511.8874608 99.72517081 510.30755524 97.28147592 507.5793457 94.12698364 C507.0843457 93.11635864 506.5893457 92.10573364 506.0793457 91.06448364 C504.56226827 88.09354034 502.95167852 86.4227896 500.5793457 84.12698364 C499.91267904 82.79365031 499.24601237 81.46031698 498.5793457 80.12698364 C497.28969394 78.7513551 495.95245278 77.41931971 494.5793457 76.12698364 C493.8780957 75.38448364 493.1768457 74.64198364 492.4543457 73.87698364 C490.76312487 71.89954423 490.76312487 71.89954423 488.5793457 72.12698364 C488.3318457 71.34323364 488.0843457 70.55948364 487.8293457 69.75198364 C486.34815132 66.64147544 485.60639797 66.51077896 482.5793457 65.12698364 C480.00612097 62.68571915 477.61143501 60.16340935 475.2668457 57.50198364 C472.34399892 54.91900277 470.05063753 54.07003514 466.41918945 52.87307739 C463.89539469 51.84962771 462.49163326 50.0392712 460.5793457 48.12698364 C458.57347639 47.26966936 456.56535676 46.57947458 454.48168945 45.93557739 C452.5793457 45.12698364 452.5793457 45.12698364 451.23950195 43.63088989 C448.7859401 41.40825151 446.29751877 41.2358272 443.0793457 40.62698364 C436.88059602 39.45424722 436.88059602 39.45424722 435.17700195 37.60354614 C432.50049828 35.12990705 429.0062244 35.31174572 425.5168457 35.00198364 C424.44660156 34.8917688 424.44660156 34.8917688 423.35473633 34.77932739 C421.90413115 34.63154456 420.45268351 34.49179824 419.00050998 34.36031753 C417.51558503 34.21721146 416.03198032 34.05786541 414.55192876 33.87097281 C406.14728296 32.85806795 397.72612889 32.98473495 389.27630615 32.99327087 C387.51793979 32.99140071 385.75957384 32.98909918 384.00120854 32.98640555 C379.18639719 32.98030617 374.37160325 32.98041896 369.55678892 32.98159993 C364.35676527 32.98180442 359.15674714 32.97628044 353.95672607 32.97154236 C343.77320322 32.96324445 333.58968616 32.96048787 323.40616021 32.95992998 C315.12187991 32.95945422 306.83760153 32.95739648 298.55332184 32.95422935 C275.03938478 32.94542357 251.52545228 32.94080963 228.01151356 32.94155983 C226.7445134 32.94159979 225.47751324 32.94163974 224.17211914 32.94168091 C222.90356186 32.94172179 221.63500459 32.94176267 220.32800618 32.94180479 C199.79287539 32.94221079 179.25776298 32.9326526 158.7226375 32.91854254 C137.61132171 32.90415174 116.50001487 32.89727391 95.38869405 32.89813632 C83.54699124 32.89846745 71.70530768 32.89575742 59.86360931 32.88495827 C49.77592214 32.87581743 39.68826293 32.87370713 29.60057339 32.88046769 C24.46168267 32.88371546 19.32284547 32.88385334 14.18395996 32.87511444 C-20.04173689 30.39467961 -20.04173689 30.39467961 -51.6706543 38.62698364 Z M559.5793457 184.12698364 C559.3811255 187.24949115 559.31024161 190.28345446 559.32537842 193.4072113 C559.32225844 194.38136134 559.31913846 195.35551137 559.31592393 196.35918111 C559.30790613 199.64422842 559.31428233 202.92909295 559.32055664 206.21414185 C559.3178484 208.56097523 559.31428842 210.90780776 559.30993652 213.25463867 C559.30078884 219.64516908 559.30436696 226.03563519 559.31069469 232.42616677 C559.31603331 238.42750399 559.31177557 244.42884002 559.3088403 250.43017759 C559.30313168 263.04464604 559.30970254 275.65908547 559.32044104 288.27354916 C559.32937083 299.09832509 559.32783026 309.92305811 559.31860352 320.74783325 C559.30789957 333.31156454 559.3036876 345.87527034 559.30982804 358.43900555 C559.3129912 365.09189155 559.31335238 371.74475362 559.30675507 378.39763832 C559.30098452 384.65448452 559.30497326 390.91124959 559.31654358 397.16808701 C559.31919205 399.4671064 559.31842189 401.7661326 559.31401825 404.06514931 C559.30856866 407.19879393 559.31539011 410.33217717 559.32537842 413.46580505 C559.32091697 414.37981325 559.31645553 415.29382145 559.31185889 416.23552686 C559.31707439 417.07678025 559.32228988 417.91803363 559.32766342 418.78477955 C559.32798813 419.50782207 559.32831283 420.2308646 559.32864738 420.9758175 C559.54918597 423.68333996 559.54918597 423.68333996 561.5793457 428.12698364 C671.7993457 428.12698364 782.0193457 428.12698364 895.5793457 428.12698364 C896.70672283 424.74485226 896.64226572 423.47926985 895.5793457 420.12698364 C894.9605957 419.54948364 894.3418457 418.97198364 893.7043457 418.37698364 C891.01822306 415.53285379 890.38468549 412.87738458 889.38793945 409.15042114 C888.65852897 406.77041469 888.65852897 406.77041469 885.5793457 405.12698364 C884.77075195 403.13870239 884.77075195 403.13870239 884.1418457 400.81448364 C882.91815564 396.79744872 881.29825907 394.35569326 878.5793457 391.12698364 C877.55969143 388.80217191 876.55874969 386.46903665 875.5793457 384.12698364 C875.0843457 383.48760864 874.5893457 382.84823364 874.0793457 382.18948364 C872.61056181 380.16990578 871.95894449 378.5884445 871.1418457 376.25198364 C869.79739563 372.44388161 867.85638111 369.4713794 865.5793457 366.12698364 C864.57449687 363.79573435 863.57412323 361.46254827 862.5793457 359.12698364 C862.0637207 358.46698364 861.5480957 357.80698364 861.0168457 357.12698364 C859.5793457 355.12698364 859.5793457 355.12698364 858.6418457 351.68948364 C857.50325748 347.87186432 856.05555768 346.18583373 853.5793457 343.12698364 C852.11356724 340.1804698 850.82643574 337.1717407 849.5793457 334.12698364 C848.9193457 334.12698364 848.2593457 334.12698364 847.5793457 334.12698364 C847.32411133 333.00549927 847.32411133 333.00549927 847.0637207 331.86135864 C846.82137695 330.87651489 846.5790332 329.89167114 846.3293457 328.87698364 C846.09731445 327.90245239 845.8652832 326.92792114 845.6262207 325.92385864 C844.447577 322.77494486 842.96477095 321.437425 840.5793457 319.12698364 C839.63793945 316.87307739 839.63793945 316.87307739 839.0168457 314.56448364 C838.1390364 311.26327284 838.1390364 311.26327284 836.0793457 308.62698364 C834.20918818 306.75682612 833.83012182 305.22456277 833.1418457 302.68948364 C832.23278915 299.72434108 831.80409669 298.35173463 829.5793457 296.12698364 C826.92979087 293.47742881 826.35584338 290.81309 825.38793945 287.24807739 C824.72092755 285.06414235 824.72092755 285.06414235 823.0793457 283.62698364 C821.20918818 281.75682612 820.83012182 280.22456277 820.1418457 277.68948364 C818.93477408 273.75860119 817.53906353 271.99421029 814.5793457 269.12698364 C813.72045392 267.12153297 813.03189722 265.11319073 812.38793945 263.02932739 C811.46142918 260.84956651 810.24315589 259.78647225 808.5793457 258.12698364 C807.7355957 256.22463989 807.7355957 256.22463989 807.0793457 254.18948364 C805.95890642 250.98491119 804.63225472 248.83682354 802.5793457 246.12698364 C801.15311183 243.16599809 799.85429192 240.15578987 798.5793457 237.12698364 C797.9193457 237.12698364 797.2593457 237.12698364 796.5793457 237.12698364 C796.42079102 236.53530396 796.26223633 235.94362427 796.09887695 235.33401489 C794.5003838 229.92033366 792.88185213 226.94056889 788.5793457 223.12698364 C787.39759518 221.80700084 786.23193416 220.47250538 785.0793457 219.12698364 C780.79351298 214.20381803 776.58563699 209.94267057 771.13012695 206.33792114 C769.5793457 205.12698364 769.5793457 205.12698364 767.5793457 202.12698364 C764.61515385 200.48721793 761.79289968 199.1981683 758.5793457 198.12698364 C758.5793457 197.46698364 758.5793457 196.80698364 758.5793457 196.12698364 C757.91547852 195.87303833 757.25161133 195.61909302 756.56762695 195.35745239 C755.68461914 195.01327271 754.80161133 194.66909302 753.8918457 194.31448364 C753.02172852 193.97803833 752.15161133 193.64159302 751.25512695 193.29495239 C748.5793457 192.12698364 748.5793457 192.12698364 746.15356445 190.58401489 C743.1429057 188.87995463 740.46723755 188.291897 737.0793457 187.62698364 C731.07007635 186.44759433 731.07007635 186.44759433 728.2355957 184.59573364 C720.68511858 180.42076394 709.7486989 181.97841658 701.36083984 181.98171997 C699.83568236 181.97872338 698.31052563 181.9753197 696.78536987 181.97154236 C692.66812716 181.96275688 688.55090525 181.96036678 684.43365407 181.95972657 C681.86080603 181.95901387 679.28796323 181.95687556 676.7151165 181.95422935 C667.73911072 181.94499959 658.76311974 181.94089219 649.78710938 181.94168091 C641.416906 181.94228362 633.04676668 181.93168803 624.67657954 181.91593724 C617.48491584 181.9028856 610.29327318 181.89749589 603.10159773 181.89813632 C598.80807099 181.89839167 594.51460144 181.89551914 590.2210865 181.88495827 C586.19173627 181.8753153 582.16249845 181.87517172 578.13314438 181.8824749 C576.65203501 181.88352495 575.17091876 181.88113312 573.68982124 181.87511444 C571.67445881 181.86745216 569.65905843 181.87321237 567.64369202 181.87974548 C565.9494565 181.87892833 565.9494565 181.87892833 564.220994 181.87809467 C561.42271963 181.85850231 561.42271963 181.85850231 559.5793457 184.12698364 Z M559.5793457 459.12698364 C559.47509527 461.44998248 559.43601123 463.74350393 559.43890381 466.067276 C559.43593269 466.80175872 559.43296156 467.53624144 559.42990041 468.29298121 C559.42117636 470.77273485 559.41970206 473.25244044 559.41821289 475.73220825 C559.41358738 477.50248824 559.40856309 479.27276723 559.40316772 481.04304504 C559.39001707 485.86527999 559.38359374 490.687501 559.37915707 495.50975108 C559.37623099 498.51875101 559.37212711 501.52774708 559.36765289 504.53674507 C559.35397173 513.940426 559.34430777 523.34409817 559.340451 532.74778837 C559.33596677 543.6232406 559.31840457 554.49856736 559.28945041 565.37398142 C559.2678761 573.76717195 559.25774902 582.16032707 559.25640988 590.55354506 C559.25535891 595.57268656 559.24938929 600.59171023 559.23159027 605.61082268 C559.21518259 610.32954543 559.21291827 615.04806083 559.22172928 619.76680183 C559.22250356 621.50269244 559.21810591 623.23859387 559.20827103 624.97445679 C559.1956691 627.33645846 559.20136317 629.69771259 559.21185303 632.05970764 C559.20379662 632.75357053 559.19574022 633.44743342 559.18743968 634.16232246 C559.17428377 636.26930358 559.17428377 636.26930358 559.5793457 639.12698364 C560.5693457 639.78698364 561.5593457 640.44698364 562.5793457 641.12698364 C563.46686523 640.40381958 563.46686523 640.40381958 564.37231445 639.66604614 C565.16250977 639.03440552 565.95270508 638.40276489 566.7668457 637.75198364 C567.54415039 637.12549927 568.32145508 636.49901489 569.12231445 635.85354614 C571.55278784 634.14564592 573.82417666 633.19275005 576.5793457 632.12698364 C577.1774707 631.48760864 577.7755957 630.84823364 578.3918457 630.18948364 C581.4710513 627.28623265 584.57835971 626.46064564 588.5793457 625.12698364 C588.5793457 624.46698364 588.5793457 623.80698364 588.5793457 623.12698364 C589.5693457 622.95682739 590.5593457 622.78667114 591.5793457 622.61135864 C600.00611098 621.24078921 600.00611098 621.24078921 607.8293457 618.00198364 C612.5656765 615.35610162 617.23462444 615.27491215 622.5793457 615.12698364 C623.2211377 615.10651978 623.86292969 615.08605591 624.52416992 615.06497192 C648.1004205 614.39610292 648.1004205 614.39610292 655.0715332 618.64651489 C657.97011164 620.35766945 660.12539712 620.64747224 663.4543457 621.00198364 C668.34631795 621.71452305 671.23456743 622.77717338 675.0090332 625.90432739 C677.56727702 627.89619385 680.60486239 628.87456961 683.5793457 630.12698364 C688.59984238 632.88080063 692.93061054 636.10943048 697.1340332 639.99026489 C698.53489262 641.33304923 698.53489262 641.33304923 700.5793457 641.12698364 C700.8268457 641.91073364 701.0743457 642.69448364 701.3293457 643.50198364 C702.80258333 646.59578266 703.62078301 646.692529 706.5793457 648.12698364 C707.60947848 649.77519608 708.61049199 651.44202066 709.5793457 653.12698364 C710.5693457 653.78698364 711.5593457 654.44698364 712.5793457 655.12698364 C713.61265076 656.87068593 714.6420327 658.61782349 715.60668945 660.40042114 C716.58362758 662.23525589 716.58362758 662.23525589 718.1418457 664.12698364 C720.13999853 666.90702236 721.2336022 669.98691547 722.5793457 673.12698364 C723.07821289 673.73542114 723.57708008 674.34385864 724.09106445 674.97073364 C726.45974514 678.40252299 726.72868508 682.20124962 727.44262695 686.25198364 C728.30216116 689.89787714 729.95710833 693.04047482 731.65039062 696.36917114 C732.19700851 697.44795532 732.7436264 698.5267395 733.30680847 699.63821411 C733.9367144 700.87015503 733.9367144 700.87015503 734.5793457 702.12698364 C746.05478811 702.19684863 757.53017896 702.24997884 769.00579166 702.28242016 C774.33580666 702.29799939 779.6656749 702.31909429 784.99560547 702.353302 C790.15035356 702.386174 795.30496153 702.4038947 800.45980644 702.41161537 C802.41514729 702.41710935 804.37048148 702.42783591 806.3257618 702.44417381 C816.69477493 702.52727843 826.40344362 702.21801423 836.52445984 699.84083557 C840.76378126 698.85021009 845.0011424 698.39757212 849.3293457 698.00198364 C855.03403833 697.49705855 855.03403833 697.49705855 860.5793457 696.12698364 C860.5793457 695.46698364 860.5793457 694.80698364 860.5793457 694.12698364 C861.68793945 693.88463989 862.7965332 693.64229614 863.9387207 693.39260864 C865.40243813 693.0548277 866.86597039 692.71624366 868.3293457 692.37698364 C869.05895508 692.21971802 869.78856445 692.06245239 870.5402832 691.90042114 C875.09231442 690.82448649 877.40238438 689.70457947 880.5793457 686.12698364 C882.7980957 684.96682739 882.7980957 684.96682739 885.0793457 684.06448364 C888.29661824 682.72175943 890.86324016 681.34010668 893.5793457 679.12698364 C894.2393457 678.81760864 894.8993457 678.50823364 895.5793457 678.18948364 C897.68461726 677.19706078 897.68461726 677.19706078 899.3605957 675.33792114 C902.63884211 672.07121786 906.29472247 669.30920667 909.9230957 666.44338989 C912.51717345 664.18120151 914.49402292 661.85359924 916.5793457 659.12698364 C918.24601237 657.46031698 919.91267904 655.79365031 921.5793457 654.12698364 C923.98511572 651.45825989 923.98511572 651.45825989 924.5793457 648.12698364 C925.1774707 647.92073364 925.7755957 647.71448364 926.3918457 647.50198364 C929.38075271 645.62324209 930.07569595 643.26503531 931.5793457 640.12698364 C933.0643457 639.13698364 933.0643457 639.13698364 934.5793457 638.12698364 C935.47947831 636.01064519 935.47947831 636.01064519 936.0793457 633.62698364 C937.24601237 629.34920586 937.24601237 629.34920586 940.5793457 627.12698364 C941.74842656 624.06034686 941.74842656 624.06034686 942.6418457 620.56448364 C943.23146952 618.40252963 943.86550612 616.25116217 944.5793457 614.12698364 C945.2393457 613.79698364 945.8993457 613.46698364 946.5793457 613.12698364 C947.18600805 611.21614013 947.18600805 611.21614013 947.54418945 608.90042114 C947.70467773 608.03288208 947.86516602 607.16534302 948.03051758 606.27151489 C948.19100586 605.35756958 948.35149414 604.44362427 948.5168457 603.50198364 C950.28159371 593.46543326 950.28159371 593.46543326 952.1652832 589.40042114 C955.79377287 581.00076828 954.8527776 570.18752243 954.5793457 561.12698364 C954.55098633 559.99131958 954.52262695 558.85565552 954.4934082 557.68557739 C954.19100982 551.01121309 953.34750371 545.81951925 950.55200195 539.76760864 C949.34168422 536.48176611 948.98278873 533.35168218 948.5793457 529.87698364 C947.92138532 524.47355674 946.87418339 521.52010056 943.5793457 517.12698364 C943.03097116 515.45457771 942.53484976 513.76453432 942.0793457 512.06448364 C940.92921757 507.87026639 939.39504353 505.47062481 936.5793457 502.12698364 C935.7482168 500.14474121 935.06069703 498.13536195 934.3605957 496.10354614 C933.19850477 493.16345607 931.3532425 490.73239456 929.5793457 488.12698364 C928.57449687 485.79573435 927.57412323 483.46254827 926.5793457 481.12698364 C925.8368457 480.16792114 925.8368457 480.16792114 925.0793457 479.18948364 C923.61056181 477.16990578 922.95894449 475.5884445 922.1418457 473.25198364 C920.80119096 469.44875782 918.87123578 466.45392085 916.5793457 463.12698364 C915.88568056 461.47137171 915.21426787 459.80600004 914.5793457 458.12698364 C869.49886093 458.10411924 824.41837677 458.08648642 779.33788735 458.07591831 C774.02164494 458.07466753 768.70540255 458.07337322 763.38916016 458.072052 C762.33074484 458.07178969 761.27232952 458.07152738 760.18184101 458.07125712 C743.02035359 458.0669 725.8588695 458.05901222 708.69738407 458.04983085 C691.10195636 458.04049548 673.50653041 458.03492828 655.91110033 458.03289515 C645.04455481 458.03151968 634.17801872 458.02716778 623.3114761 458.01906718 C615.87056334 458.01380116 608.42965548 458.01217901 600.98874099 458.01348227 C596.68896986 458.01412587 592.38921525 458.01310558 588.08944702 458.00777817 C584.15970444 458.00294447 580.22998962 458.00264479 576.30024581 458.00608475 C574.87224229 458.00651047 573.4442371 458.00521448 572.01623691 458.00210046 C570.08780949 457.99813685 568.15937171 458.00082711 566.23094273 458.00393581 C564.61846034 458.00336623 564.61846034 458.00336623 562.97340256 458.00278515 C560.6264817 457.85667323 560.6264817 457.85667323 559.5793457 459.12698364 Z M87.8293457 647.37698364 C86.70657227 647.58194458 85.58379883 647.78690552 84.42700195 647.99807739 C83.34805664 648.21077271 82.26911133 648.42346802 81.1574707 648.64260864 C80.18197266 648.83113403 79.20647461 649.01965942 78.20141602 649.21389771 C75.12498437 650.2852063 73.7425213 651.73722337 71.5793457 654.12698364 C69.3605957 655.25198364 69.3605957 655.25198364 67.0793457 656.12698364 C63.45534551 657.63005257 61.22469613 659.17640047 58.5793457 662.12698364 C57.5893457 662.45698364 56.5993457 662.78698364 55.5793457 663.12698364 C54.55322622 664.7776976 53.55626427 666.4466837 52.5793457 668.12698364 C51.24601237 669.46031698 49.91267904 670.79365031 48.5793457 672.12698364 C44.609634 676.89063768 41.89307916 681.39773889 39.5793457 687.12698364 C39.07685303 687.75991333 38.57436035 688.39284302 38.05664062 689.04495239 C36.40456821 691.37330698 36.02451442 692.88340962 35.63012695 695.68948364 C35.50395996 696.56217896 35.37779297 697.43487427 35.24780273 698.33401489 C35.13033691 699.25569458 35.01287109 700.17737427 34.8918457 701.12698364 C34.76664551 702.07960083 34.64144531 703.03221802 34.51245117 704.01370239 C33.16598797 714.75609727 33.50266908 724.47773315 34.9543457 735.18948364 C35.08019043 736.11954224 35.20603516 737.04960083 35.33569336 738.00784302 C35.52977783 739.32171997 35.52977783 739.32171997 35.7277832 740.66213989 C35.84299316 741.44983765 35.95820313 742.2375354 36.0769043 743.04910278 C36.52294552 745.41462106 36.52294552 745.41462106 38.5793457 748.12698364 C39.2393457 748.12698364 39.8993457 748.12698364 40.5793457 748.12698364 C41.5693457 751.42698364 42.5593457 754.72698364 43.5793457 758.12698364 C44.2393457 758.12698364 44.8993457 758.12698364 45.5793457 758.12698364 C45.5793457 758.78698364 45.5793457 759.44698364 45.5793457 760.12698364 C46.2393457 760.12698364 46.8993457 760.12698364 47.5793457 760.12698364 C47.8062207 761.07573364 48.0330957 762.02448364 48.2668457 763.00198364 C49.23475911 766.32344012 49.23475911 766.32344012 52.0793457 767.18948364 C53.3168457 767.65354614 53.3168457 767.65354614 54.5793457 768.12698364 C54.8474707 768.89010864 55.1155957 769.65323364 55.3918457 770.43948364 C56.99727214 774.07281716 59.26219391 775.06708494 62.63012695 777.00198364 C64.5793457 778.12698364 64.5793457 778.12698364 66.6418457 779.75198364 C69.40755557 781.71474548 72.46049102 782.81378167 75.5793457 784.12698364 C76.31411133 784.62842896 77.04887695 785.12987427 77.8059082 785.64651489 C81.30286747 787.5132016 84.6343651 787.9346377 88.5168457 788.31448364 C89.64509766 788.43291626 89.64509766 788.43291626 90.79614258 788.55374146 C100.83657225 789.53402009 110.62518247 789.36351568 120.6418457 788.25198364 C121.35663086 788.1736731 122.07141602 788.09536255 122.80786133 788.01467896 C126.6811276 787.53465878 130.03471155 786.77147278 133.5793457 785.12698364 C133.5793457 784.46698364 133.5793457 783.80698364 133.5793457 783.12698364 C134.15942383 782.96842896 134.73950195 782.80987427 135.3371582 782.64651489 C140.93242743 780.97532062 144.23694984 778.97592543 148.5793457 775.12698364 C149.4868457 774.77635864 150.3943457 774.42573364 151.3293457 774.06448364 C154.15236602 772.88822518 154.3203121 771.81292199 155.5793457 769.12698364 C156.2187207 768.83823364 156.8580957 768.54948364 157.5168457 768.25198364 C160.52653383 766.61033557 161.11999122 764.16730548 162.5793457 761.12698364 C163.2393457 760.48760864 163.8993457 759.84823364 164.5793457 759.18948364 C167.18748573 756.49983924 168.14325846 753.56110532 169.5793457 750.12698364 C170.33127197 749.42520996 170.33127197 749.42520996 171.09838867 748.70925903 C173.01936091 746.65686519 173.23631837 745.1277316 173.7121582 742.37307739 C173.87844727 741.43528442 174.04473633 740.49749146 174.21606445 739.53128052 C174.37719727 738.55223755 174.53833008 737.57319458 174.7043457 736.56448364 C174.87321289 735.61251099 175.04208008 734.66053833 175.21606445 733.67971802 C175.70820478 730.83344189 176.15125116 727.98353265 176.5793457 725.12698364 C176.78515259 723.90096436 176.78515259 723.90096436 176.99511719 722.650177 C178.0087644 715.43754646 176.82295913 708.90554989 175.3918457 701.81448364 C175.18237305 700.66141724 174.97290039 699.50835083 174.75708008 698.32034302 C174.53987305 697.20852661 174.32266602 696.09671021 174.09887695 694.95120239 C173.90398682 693.95177612 173.70909668 692.95234985 173.50830078 691.92263794 C172.42759566 688.67029776 170.80505232 686.7038118 168.5793457 684.12698364 C167.68630315 682.03704173 167.04544929 679.97149983 166.38793945 677.79885864 C166.12110352 677.24713989 165.85426758 676.69542114 165.5793457 676.12698364 C164.5893457 675.79698364 163.5993457 675.46698364 162.5793457 675.12698364 C162.1049707 674.15760864 161.6305957 673.18823364 161.1418457 672.18948364 C159.43621548 668.8464484 158.80716376 668.58470793 155.5793457 667.12698364 C155.2905957 666.46698364 155.0018457 665.80698364 154.7043457 665.12698364 C153.67966383 662.77771408 153.67966383 662.77771408 150.5168457 662.12698364 C149.5474707 661.79698364 148.5780957 661.46698364 147.5793457 661.12698364 C147.45430664 660.48889771 147.32926758 659.85081177 147.20043945 659.19338989 C146.99547852 658.51147583 146.79051758 657.82956177 146.5793457 657.12698364 C144.37172595 655.87489613 144.37172595 655.87489613 141.7043457 655.06448364 C136.82908882 653.40860193 136.82908882 653.40860193 135.26904297 651.64944458 C132.99631094 649.60165424 131.0877992 649.33078145 128.09887695 648.74026489 C126.475625 648.41638794 126.475625 648.41638794 124.81958008 648.08596802 C123.12285156 647.76595825 123.12285156 647.76595825 121.3918457 647.43948364 C119.72412109 647.10207153 119.72412109 647.10207153 118.02270508 646.75784302 C107.10617171 644.63141349 98.73119175 645.20676749 87.8293457 647.37698364 Z M619.7043457 646.50198364 C615.68472099 647.60571201 611.76395854 648.44866329 607.6418457 649.06448364 C603.19703871 649.83280028 600.94200134 651.03697576 597.5793457 654.12698364 C596.26326119 654.82708633 594.9278294 655.49152008 593.5793457 656.12698364 C590.17869816 657.7472545 587.48701953 659.71776819 584.5793457 662.12698364 C583.5893457 662.45698364 582.5993457 662.78698364 581.5793457 663.12698364 C581.1049707 663.93135864 580.6305957 664.73573364 580.1418457 665.56448364 C578.5793457 668.12698364 578.5793457 668.12698364 576.6105957 669.04104614 C574.09675178 670.38498578 573.62847657 671.4803028 572.5168457 674.06448364 C571.53682817 676.31473848 570.82698115 677.88821493 569.05200195 679.59963989 C567.21996391 681.49971118 566.78687564 683.10009102 566.0793457 685.62698364 C564.89204667 689.86733734 564.89204667 689.86733734 563.05981445 691.38870239 C560.61443966 694.25992082 560.71734425 697.81249981 560.3918457 701.43948364 C560.31289063 702.24837036 560.23393555 703.05725708 560.15258789 703.89065552 C559.20958498 714.2351117 559.36756433 724.3555383 560.3293457 734.68948364 C560.39089844 735.45196411 560.45245117 736.21444458 560.51586914 737.00003052 C561.04328437 741.9152778 562.18971117 744.37019334 565.5793457 748.12698364 C566.47238826 750.21692555 567.11324212 752.28246746 567.77075195 754.45510864 C568.03758789 755.00682739 568.30442383 755.55854614 568.5793457 756.12698364 C569.5693457 756.45698364 570.5593457 756.78698364 571.5793457 757.12698364 C572.27306153 758.78257435 572.93464321 760.45169832 573.5793457 762.12698364 C578.34318563 769.00588942 583.22254362 774.17860821 590.5793457 778.12698364 C591.2599707 778.66323364 591.9405957 779.19948364 592.6418457 779.75198364 C595.40755557 781.71474548 598.46049102 782.81378167 601.5793457 784.12698364 C602.31411133 784.62842896 603.04887695 785.12987427 603.8059082 785.64651489 C607.30268746 787.51310551 610.63440424 787.93525012 614.5168457 788.31448364 C615.27191406 788.39271362 616.02698242 788.4709436 616.80493164 788.55154419 C627.61198374 789.59558831 637.94420638 789.26008924 648.7043457 787.87698364 C649.61796875 787.76781616 650.5315918 787.65864868 651.47290039 787.5461731 C656.55978754 786.82171448 659.16520347 786.18877347 662.5793457 782.12698364 C664.83325195 781.22073364 664.83325195 781.22073364 667.1418457 780.62698364 C670.95281164 779.48307217 672.43415987 778.55928097 674.5793457 775.12698364 C676.24213897 774.12055614 677.90918055 773.12112957 679.5793457 772.12698364 C682.28734921 769.67688523 684.34431869 767.52472167 686.2043457 764.37698364 C687.5793457 762.12698364 687.5793457 762.12698364 690.5793457 761.12698364 C691.71612899 758.86654193 691.71612899 758.86654193 692.5793457 756.18948364 C694.2522429 751.34505218 694.2522429 751.34505218 697.5793457 749.12698364 C698.39534612 746.29566548 699.06411903 743.56860711 699.6418457 740.68948364 C699.96038967 739.14793553 700.28440729 737.60750599 700.61450195 736.06838989 C700.75251221 735.3846228 700.89052246 734.70085571 701.03271484 733.99636841 C701.5793457 732.12698364 701.5793457 732.12698364 703.5793457 729.12698364 C704.01461473 725.53765851 703.90352271 721.92734904 703.8918457 718.31448364 C703.90795898 717.32899536 703.92407227 716.34350708 703.94067383 715.32815552 C703.94446432 709.68411533 703.42365863 706.10982465 700.5793457 701.12698364 C699.7227184 697.45855651 699.0743392 693.78596448 698.4230957 690.07620239 C698.00543945 688.61633911 698.00543945 688.61633911 697.5793457 687.12698364 C696.5893457 686.79698364 695.5993457 686.46698364 694.5793457 686.12698364 C693.8059082 683.91213989 693.8059082 683.91213989 693.2043457 681.18948364 C692.5304944 678.47819238 692.5304944 678.47819238 691.5793457 676.12698364 C689.10298558 674.75231739 689.10298558 674.75231739 686.5793457 674.12698364 C685.86686838 672.47937984 685.20534187 670.80934835 684.5793457 669.12698364 C681.29511691 665.38661197 677.712564 662.8531489 673.5793457 660.12698364 C672.9399707 659.44635864 672.3005957 658.76573364 671.6418457 658.06448364 C668.94032558 655.52669202 665.9785373 654.54846376 662.5793457 653.12698364 C662.12575684 652.63093628 661.67216797 652.13488892 661.20483398 651.62380981 C658.98604814 649.5806473 657.07808242 649.32571539 654.1340332 648.74026489 C653.05637695 648.52434692 651.9787207 648.30842896 650.8684082 648.08596802 C649.74176758 647.87262817 648.61512695 647.65928833 647.4543457 647.43948364 C645.79918945 647.10207153 645.79918945 647.10207153 644.1105957 646.75784302 C635.67965742 645.11070602 628.06730441 644.10918243 619.7043457 646.50198364 Z " fill="#000000" transform="translate(234.420654296875,228.87301635742188)"/>
<path d="M0 0 C1.29035156 0.04125 2.58070313 0.0825 3.91015625 0.125 C10.86734447 0.45400989 16.67036888 1.02894866 23 4 C23 4.66 23 5.32 23 6 C23.66386719 6.09796875 24.32773437 6.1959375 25.01171875 6.296875 C30.5286978 7.23113715 33.75940099 8.20577983 38 12 C40.04851939 13.06618846 42.12120575 14.03296547 44.23046875 14.97265625 C46 16 46 16 48 19 C49.010625 19.474375 50.02125 19.94875 51.0625 20.4375 C54 22 54 22 54.875 24.1875 C54.91625 24.785625 54.9575 25.38375 55 26 C56.175625 26.0928125 56.175625 26.0928125 57.375 26.1875 C58.24125 26.455625 59.1075 26.72375 60 27 C60.68132451 28.66072849 61.34742127 30.327767 62 32 C63.65204456 32.70211894 65.31923769 33.36971413 67 34 C68 35.8125 68 35.8125 69 38 C70.6436814 39.68933922 72.3142876 41.35259924 74 43 C75.53711524 44.72318709 77.03227983 46.47583749 78.51953125 48.2421875 C79.46280633 49.3621711 80.41746456 50.47273451 81.38671875 51.5703125 C88 59.15671922 88 59.15671922 88 64 C88.598125 64.185625 89.19625 64.37125 89.8125 64.5625 C92.50474554 66.33168993 93.09750226 68.18766989 94.21484375 71.13671875 C95.05071711 73.28757282 95.05071711 73.28757282 97.0625 76.0625 C99.0089589 79.01358285 99.89038657 81.67115972 101 85 C101.4846875 85.45246094 101.969375 85.90492188 102.46875 86.37109375 C104.40981657 88.43595284 104.76777541 90.13786474 105.4375 92.875 C106.32855395 96.13907133 106.81486623 97.78681566 109.0625 100.375 C112.23306231 104.67060055 112.36868523 109.79165314 113 115 C113.66 115 114.32 115 115 115 C117.50469839 120.12324671 118.60769801 124.7983593 119.375 130.44921875 C120.07318656 133.29869267 121.24736937 134.68743802 123 137 C123.66015625 139.41015625 123.66015625 139.41015625 124.0625 142.0625 C124.21976563 143.02800781 124.37703125 143.99351562 124.5390625 144.98828125 C124.69117188 145.98214844 124.84328125 146.97601562 125 148 C126.0899815 155.53651876 126.0899815 155.53651876 128.5625 162.6875 C132.14057377 170.93262651 131.48124079 180.925709 132 189.8125 C132.16458726 192.61080496 132.33139976 195.40896531 132.5 198.20703125 C132.53993576 198.88290283 132.57987152 199.55877441 132.62101746 200.25512695 C132.8611958 204.1893739 133.19899551 208.1001923 133.61328125 212.01953125 C134.03972057 216.50300871 133.8215087 220.41413301 133.1875 224.875 C132.98780739 226.32770521 132.79135282 227.78085816 132.59765625 229.234375 C132.49598145 229.99685547 132.39430664 230.75933594 132.28955078 231.54492188 C131.9764858 234.19937504 131.75816933 236.85029544 131.55859375 239.515625 C131.44898315 240.91385498 131.44898315 240.91385498 131.3371582 242.34033203 C131.19906463 244.15286979 131.07325373 245.96639902 130.96166992 247.78076172 C130.49190756 253.63281932 129.08334262 257.02974693 126 262 C125.05787311 265.05388984 125.05787311 265.05388984 124.5 268.0625 C123.40402572 272.85738748 121.912801 275.99489863 119 280 C118.18046421 282.0351152 117.47250111 284.07727911 116.80859375 286.16796875 C115.87348628 288.28664219 114.63272597 289.3800297 113 291 C112.2884375 292.794375 112.2884375 292.794375 111.5625 294.625 C110 298 110 298 107.8125 298.9375 C106.9153125 298.9684375 106.9153125 298.9684375 106 299 C105.938125 299.721875 105.87625 300.44375 105.8125 301.1875 C104.73561783 304.91516905 102.85225789 306.40703828 100 309 C99.175 309.825 98.35 310.65 97.5 311.5 C96.675 312.325 95.85 313.15 95 314 C93.824375 315.2065625 93.824375 315.2065625 92.625 316.4375 C90.07023681 318.9314355 87.42424567 321.2271394 84.6875 323.515625 C82.78687423 325.13194585 82.78687423 325.13194585 80.5 327.75 C77.49385904 330.45552687 74.85455363 330.96223556 71 332 C70.67 332.99 70.34 333.98 70 335 C68.29408843 335.7873438 66.58184632 336.5657546 64.83203125 337.25 C62.39130031 338.24919049 60.24333566 339.61948575 58 341 C54.87172115 342.70015155 52.06202204 343.98277165 48.625 344.9375 C45.7156748 345.79023325 44.01846568 346.52271819 41.5 348 C36.46149785 350.67208235 31.08826701 350.87926323 25.49609375 351.5 C21.4403562 352.08003844 18.66018417 353.24616175 15 355 C8.3943052 356.17514909 1.89386531 356.1861173 -4.79614258 356.18530273 C-6.79707947 356.1874832 -8.79797674 356.20598312 -10.79882812 356.22460938 C-19.77800318 356.23807141 -27.84962421 355.55921524 -36.3125 352.5 C-40.0853915 351.15062066 -43.71519049 350.57142401 -47.6875 350.0625 C-52.86562632 349.34848258 -55.74538588 348.09426481 -60 345 C-62.19890821 344.40380826 -62.19890821 344.40380826 -64.5625 344 C-68.72339689 343.21074502 -70.74806854 341.76414174 -74 339 C-76.34215246 337.92180223 -78.70395584 336.95526207 -81.109375 336.02734375 C-83 335 -83 335 -84 332 C-84.804375 331.979375 -85.60875 331.95875 -86.4375 331.9375 C-91.64132174 330.56807323 -94.95615772 327.44855585 -99 324 C-99.73089844 323.3915625 -100.46179688 322.783125 -101.21484375 322.15625 C-104.91774246 319.01188909 -108.04370514 315.87376568 -111 312 C-112.175625 310.824375 -112.175625 310.824375 -113.375 309.625 C-117.95087721 305.04912279 -121.69082866 301.10280996 -124 295 C-124.66 294.38125 -125.32 293.7625 -126 293.125 C-128.60325699 290.35903945 -128.97909561 287.6071955 -130 284 C-130.99 283.67 -131.98 283.34 -133 283 C-134.0625 280.41796875 -134.0625 280.41796875 -135 277.1875 C-136.2020768 272.85949348 -136.2020768 272.85949348 -138.53125 269.10546875 C-140.6654837 266.04602203 -140.96319341 262.73684681 -141.5 259.125 C-142.29582055 253.82935462 -143.43757104 249.78410939 -146 245 C-150.97374169 229.66181455 -148.35764696 209.45078991 -147.625 193.5625 C-147.59422363 192.81266846 -147.56344727 192.06283691 -147.53173828 191.2902832 C-147.2152831 185.47788128 -146.28751471 180.00840756 -143.97875977 174.61376953 C-142.93000472 171.8130782 -142.55332464 169.37368853 -142.25390625 166.40234375 C-142.08084961 164.82936523 -142.08084961 164.82936523 -141.90429688 163.22460938 C-141.67607181 161.02973634 -141.45212611 158.8344142 -141.23242188 156.63867188 C-141.11576172 155.59130859 -140.99910156 154.54394531 -140.87890625 153.46484375 C-140.73304077 152.03579712 -140.73304077 152.03579712 -140.58422852 150.57788086 C-139.9296844 147.6897357 -138.80867502 146.30025908 -137 144 C-136.26512561 140.45698242 -135.7350776 136.95929124 -135.27148438 133.375 C-134.50877275 128.26618606 -132.98870188 125.30209626 -130 121 C-129.00784204 117.69357597 -129.00784204 117.69357597 -128.4375 114.3125 C-127.63691965 110.00130024 -127.10698257 107.99370716 -124 105 C-123.13239775 102.25468855 -122.5499327 99.50440587 -121.94140625 96.69140625 C-120.84750527 93.5640296 -119.33103371 92.29916411 -117 90 C-116.00412254 87.50685696 -116.00412254 87.50685696 -115.4375 84.875 C-114.32470588 80.21647059 -114.32470588 80.21647059 -111 78 C-109.84616636 75.4505367 -108.97326319 72.85985185 -108.0625 70.21484375 C-107.711875 69.48394531 -107.36125 68.75304687 -107 68 C-106.01 67.67 -105.02 67.34 -104 67 C-103.690625 65.88625 -103.38125 64.7725 -103.0625 63.625 C-101.8798089 59.58993624 -101.25928847 59.27162529 -98 57 C-97.33484375 55.65228516 -97.33484375 55.65228516 -96.65625 54.27734375 C-94.91026495 50.82243466 -92.89316427 48.11063465 -90.4375 45.125 C-89.65246094 44.15820312 -88.86742187 43.19140625 -88.05859375 42.1953125 C-87.37925781 41.47085938 -86.69992187 40.74640625 -86 40 C-85.34 40 -84.68 40 -84 40 C-83.773125 39.278125 -83.54625 38.55625 -83.3125 37.8125 C-80.93198953 32.71140614 -76.48842361 29.27533615 -72 26 C-71.34 26 -70.68 26 -70 26 C-69.74605469 25.40316406 -69.49210937 24.80632812 -69.23046875 24.19140625 C-65.97042743 18.3854279 -59.05054165 15.17819499 -53 13 C-52.34 13 -51.68 13 -51 13 C-50.76925781 12.3709375 -50.53851563 11.741875 -50.30078125 11.09375 C-49 9 -49 9 -46.79296875 8.09375 C-45.50326172 7.79984375 -45.50326172 7.79984375 -44.1875 7.5 C-40.95014482 6.75555524 -39.26266986 6.23695393 -36.765625 3.984375 C-32.84685053 1.17259897 -29.28646797 1.08955046 -24.5625 0.75 C-23.67087158 0.67483154 -22.77924316 0.59966309 -21.8605957 0.5222168 C-14.56241017 -0.05262453 -7.31836823 -0.27073732 0 0 Z M-30 35 C-31.32605172 35.49896425 -32.66020465 35.97671057 -34 36.4375 C-37.61053783 37.72455851 -40.05171179 39.52981258 -43 42 C-43.9075 42.33 -44.815 42.66 -45.75 43 C-46.4925 43.33 -47.235 43.66 -48 44 C-48.165 44.66 -48.33 45.32 -48.5 46 C-48.665 46.66 -48.83 47.32 -49 48 C-50.65697379 48.69040574 -52.3255761 49.3530635 -54 50 C-57.02645864 52.73822449 -59.758776 55.57918443 -62 59 C-62 59.66 -62 60.32 -62 61 C-63.1446875 61.309375 -63.1446875 61.309375 -64.3125 61.625 C-67.83826641 63.42888049 -68.3819514 65.46971214 -70 69 C-70.99 69.66 -71.98 70.32 -73 71 C-74.10952073 72.84817393 -74.10952073 72.84817393 -75 74.9375 C-75.99561717 77.15689661 -76.76000005 78.76375005 -78.5 80.4765625 C-80.31390223 82.31880695 -81.03311691 84.04849303 -82 86.4375 C-83.04976674 88.92021831 -83.9311351 90.90909834 -85.5625 93.0625 C-87.45179756 95.60894453 -88.26989794 98.29646887 -89.25390625 101.29296875 C-90 103 -90 103 -92 104 C-93.11099139 107.26550504 -93.99145183 110.57202247 -94.90234375 113.8984375 C-96 117 -96 117 -97.53515625 118.51171875 C-99.79372227 120.80642182 -99.90608673 123.32299051 -100.5 126.4375 C-101.67839196 132.60301508 -101.67839196 132.60301508 -103.5 134.8515625 C-105.85071047 138.21846552 -105.97803473 141.92610022 -106.5 145.9375 C-107.22042737 151.44743526 -108.0158294 155.23482573 -111 160 C-111.72266578 163.18869288 -111.72266578 163.18869288 -112.0625 166.6875 C-112.13992432 167.33396484 -112.21734863 167.98042969 -112.29711914 168.64648438 C-112.72139157 172.24616412 -113.08902045 175.85163284 -113.4609375 179.45703125 C-113.6192031 180.97141579 -113.77806137 182.48573851 -113.9375 184 C-114.01605225 184.75861328 -114.09460449 185.51722656 -114.17553711 186.29882812 C-114.71143077 191.18826962 -115.55640575 195.88635116 -116.625 200.6875 C-118.95760181 211.93183692 -118.62798075 222.00911674 -115.57080078 232.99072266 C-113.91937946 238.95134433 -113.09254039 244.84971492 -112.39453125 250.98828125 C-111.91130052 255.12441396 -111.91130052 255.12441396 -109.53125 258.3671875 C-107.03027829 261.03403999 -106.69094841 264.34074758 -105.84375 267.8203125 C-105.5653125 268.53960938 -105.286875 269.25890625 -105 270 C-104.01 270.33 -103.02 270.66 -102 271 C-101.2265625 272.890625 -101.2265625 272.890625 -100.625 275.25 C-99.30047795 279.67208154 -97.46576812 281.88969527 -94 285 C-93.4740625 286.0828125 -93.4740625 286.0828125 -92.9375 287.1875 C-92.13297839 289.17892157 -92.13297839 289.17892157 -90 290 C-88 291 -88 291 -87.0625 292.9375 C-85.63515452 295.70822945 -83.6416212 296.44212083 -81 298 C-80.505 299.485 -80.505 299.485 -80 301 C-78.865625 301.309375 -77.73125 301.61875 -76.5625 301.9375 C-75.386875 302.288125 -74.21125 302.63875 -73 303 C-72.68933594 303.639375 -72.37867188 304.27875 -72.05859375 304.9375 C-70.65867797 307.66501119 -69.32701264 308.00237026 -66.5 309.0625 C-62.96647088 310.39904592 -62.19127412 310.71308882 -60 314 C-57.36154927 314.87818563 -57.36154927 314.87818563 -54.3125 315.4375 C-50.61693007 316.18412722 -48.19173763 316.87141706 -45.03515625 318.98828125 C-39.38664419 322.38642735 -32.54180633 322.22210351 -26.125 322.75 C-24.78762705 322.87488202 -23.450385 323.00117413 -22.11328125 323.12890625 C-10.33608818 324.19742526 0.49431813 323.8985322 12.25 322.625 C13.50296875 322.49867188 14.7559375 322.37234375 16.046875 322.2421875 C17.2534375 322.11328125 18.46 321.984375 19.703125 321.8515625 C20.79270508 321.73635254 21.88228516 321.62114258 23.00488281 321.50244141 C27.00048135 320.83216575 30.17875044 319.42928954 33.75 317.5625 C36.37349122 316.30120614 38.73995696 315.41459382 41.5 314.5625 C45.50787537 313.28482161 48.54988454 311.43076317 52 309 C52.86625 308.67 53.7325 308.34 54.625 308 C57.44378339 306.81314384 58.88713815 305.18101869 61 303 C61.9590625 302.5359375 61.9590625 302.5359375 62.9375 302.0625 C65.87181675 300.55088228 67.72159625 298.38437602 70 296 C71.14483138 294.8739804 72.29072574 293.74904085 73.4375 292.625 C78.29099643 287.7609295 82.50907144 282.93457856 86 277 C86.66 276.67 87.32 276.34 88 276 C89.09995033 273.22563134 89.9876508 270.40676857 90.90234375 267.56640625 C92 265 92 265 95 263 C95.9181701 259.83360071 95.9181701 259.83360071 96.5 256.1875 C97.35416243 251.36249911 98.4843473 248.1548413 101 244 C102.3635528 238.27720156 102.16179065 232.45659352 102.16796875 226.609375 C102.17129715 225.50958313 102.17462555 224.40979126 102.17805481 223.27667236 C102.1831077 220.95349545 102.18546364 218.63031131 102.18530273 216.30712891 C102.18748379 212.77624359 102.20564231 209.24567364 102.22460938 205.71484375 C102.22754482 203.45052189 102.22952861 201.18619856 102.23046875 198.921875 C102.24124702 197.35418365 102.24124702 197.35418365 102.25224304 195.75482178 C102.22781953 187.80898711 101.38713998 180.38082591 98.5 172.9375 C96.9037607 168.49026613 96.51161961 164.10744269 96.0625 159.4375 C95.53465327 154.07822226 94.85988582 149.78410224 92.0078125 145.16796875 C90.01094552 140.87238281 89.55943054 135.94256052 88.80859375 131.29296875 C87.9653737 127.85898565 87.42391745 127.29135946 85 125 C84.19140625 122.2578125 84.19140625 122.2578125 83.5625 119.125 C82.4619088 114.30775264 81.18689971 111.78444341 78 108 C76.79548376 104.71820363 75.86759593 101.38493865 75 98 C74.34 98 73.68 98 73 98 C72.85304688 97.45472656 72.70609375 96.90945313 72.5546875 96.34765625 C70.92580377 90.87123681 68.67839461 86.65034488 65.3046875 82.04296875 C63.98488603 79.97633352 63.58159533 78.35061446 63 76 C61.37660195 74.29115995 59.70680947 72.62553283 58 71 C57.443125 70.236875 56.88625 69.47375 56.3125 68.6875 C55.879375 68.130625 55.44625 67.57375 55 67 C54.34 67 53.68 67 53 67 C52.77828125 66.30003906 52.5565625 65.60007812 52.328125 64.87890625 C50.6928141 61.33412939 48.39074641 58.75170027 45.75 55.9375 C45.28464844 55.42123047 44.81929687 54.90496094 44.33984375 54.37304688 C41.19980186 50.97782251 37.93457891 48.48086145 34 46 C33 45 32 44 31 43 C30.154375 42.505 29.30875 42.01 28.4375 41.5 C26 40 26 40 24 37 C21.45667179 36.09102814 21.45667179 36.09102814 18.5625 35.5 C14.57890982 34.60886398 12.8279766 33.83551787 10 31 C4.59181183 29.61015693 -0.82893265 29.81599249 -6.375 29.8125 C-7.89867187 29.79413086 -7.89867187 29.79413086 -9.453125 29.77539062 C-17.52560417 29.75966502 -23.04717436 30.76047217 -30 35 Z " fill="#000000" transform="translate(434,394)"/>
</svg>
