<?xml version="1.0" encoding="UTF-8"?>
<!-- Generator: visioncortex VTracer 0.6.2 -->
<svg version="1.1" xmlns="http://www.w3.org/2000/svg" width="1280" height="1280">
<path d="M0 0 C2 2 2 2 2.4375 5.125 C2.93882253 8.57855523 3.85269683 11.33115924 5.10180664 14.56054688 C7.33871085 20.635879 9.13559267 26.87817619 11.0390625 33.06445312 C11.37679687 34.14017578 11.71453125 35.21589844 12.0625 36.32421875 C12.36285156 37.29447998 12.66320313 38.26474121 12.97265625 39.2644043 C14.03472239 42.09245827 15.40767676 44.4404149 17 47 C17.433125 48.0725 17.86625 49.145 18.3125 50.25 C20.22137832 54.89904235 23.12835709 58.90163585 26 63 C26.27972656 62.18917969 26.55945313 61.37835938 26.84765625 60.54296875 C32.8031503 44.0935495 41.98875316 31.768898 58 24 C82.09311261 13.68246404 82.09311261 13.68246404 93.625 17.0625 C100.07878817 20.76745247 103.78355249 26.10680245 106.3046875 33.06640625 C108.62730116 42.86574815 107.82792974 53.11546656 103 62 C94.71051321 74.32685342 81.30145473 78.91613595 67.56640625 82.6640625 C63.60876651 83.18210971 59.67349773 83.10339816 55.6875 83.0625 C54.85154297 83.05798828 54.01558594 83.05347656 53.15429688 83.04882812 C51.10283351 83.03710548 49.05140727 83.01917203 47 83 C49.33380212 92.19283114 52.98049926 101.64675584 58.71875 109.2890625 C60 111 60 111 60 113 C60.5775 113.268125 61.155 113.53625 61.75 113.8125 C64.05550043 115.02929189 66.02056192 116.30333879 68 118 C68 118.66 68 119.32 68 120 C68.845625 120.268125 69.69125 120.53625 70.5625 120.8125 C74 122 74 122 77.25 123.5 C85.7092243 127.14880734 94.72847198 127.38593841 103.8125 127.375 C105.0092334 127.37556396 106.2059668 127.37612793 107.43896484 127.37670898 C129.34266831 127.42045493 129.34266831 127.42045493 150 122 C151.37473284 121.76151498 152.75649512 121.5626447 154.140625 121.38671875 C154.96433594 121.27263672 155.78804687 121.15855469 156.63671875 121.04101562 C158.36203105 120.80762136 160.08862203 120.58347002 161.81640625 120.36914062 C167.23610404 119.59790836 170.74685919 118.5013914 175 115 C175.33 114.34 175.66 113.68 176 113 C176.66 113 177.32 113 178 113 C178.4007373 112.10571289 178.4007373 112.10571289 178.80957031 111.19335938 C180.01992669 108.9632852 181.19558087 107.62110964 183.046875 105.90625 C183.645 105.35066406 184.243125 104.79507813 184.859375 104.22265625 C185.48328125 103.65417969 186.1071875 103.08570313 186.75 102.5 C187.3584375 101.93152344 187.966875 101.36304688 188.59375 100.77734375 C198.12460122 92 198.12460122 92 202 92 C202 91.34 202 90.68 202 90 C230.25848707 74.22129811 259.60410704 61.32736261 291.72265625 55.80859375 C295.18610159 55.19265317 298.58761699 54.39201191 302.0078125 53.5703125 C308.88072125 51.96407635 315.79962371 50.80616783 322.77368164 49.74731445 C324.8011776 49.43922053 326.82737903 49.12353849 328.85351562 48.80664062 C341.50419928 46.84542982 354.19732964 45.20129218 366.9375 43.9375 C367.76451416 43.85443604 368.59152832 43.77137207 369.44360352 43.68579102 C375.7987985 43.0685402 382.15465662 42.63360363 388.53295898 42.34155273 C391.2089316 42.21143144 393.78514084 42.0443374 396.41235352 41.50219727 C398.94977235 41.00974793 401.32589409 40.813869 403.90625 40.71875 C405.26943359 40.66267578 405.26943359 40.66267578 406.66015625 40.60546875 C408.55338542 40.53515625 410.44661458 40.46484375 412.33984375 40.39453125 C413.70302734 40.33845703 413.70302734 40.33845703 415.09375 40.28125 C415.91552734 40.25095703 416.73730469 40.22066406 417.58398438 40.18945312 C420.01720097 40.04890625 420.01720097 40.04890625 422.43383789 39.5 C425.30849107 38.93989252 428.03782856 38.80526503 430.96484375 38.71875 C432.09470703 38.68136719 433.22457031 38.64398438 434.38867188 38.60546875 C436.1453418 38.55326172 436.1453418 38.55326172 437.9375 38.5 C440.25922748 38.43077124 442.58085179 38.35797167 444.90234375 38.28125 C445.92835693 38.25095703 446.95437012 38.22066406 448.01147461 38.18945312 C450.9986065 38.05353579 450.9986065 38.05353579 453.90600586 37.5 C457.49526641 36.91996326 460.96669226 36.80238182 464.6015625 36.71875 C465.31927826 36.70034058 466.03699402 36.68193115 466.77645874 36.66296387 C469.05922857 36.60465431 471.34207252 36.55174184 473.625 36.5 C475.88649406 36.44801721 478.14791305 36.39464412 480.40927124 36.33703613 C481.80960154 36.30140263 483.21001415 36.26879055 484.61050415 36.2401123 C488.61997227 36.13862071 492.58450691 35.86745514 496.57841492 35.49624634 C502.44346368 35.00091728 508.25025107 34.8581037 514.13354492 34.87060547 C515.17422623 34.86885315 516.21490753 34.86710083 517.28712463 34.86529541 C520.68492359 34.86093817 524.08266938 34.86379245 527.48046875 34.8671875 C529.86314402 34.86651285 532.24581923 34.86554149 534.62849426 34.86428833 C539.60349182 34.86281979 544.57847134 34.86493927 549.5534668 34.86962891 C555.91506219 34.87533501 562.27661548 34.87203623 568.63820934 34.86605644 C573.55137955 34.86243598 578.46453983 34.86359609 583.37771034 34.86618423 C585.72315793 34.86684891 588.06860644 34.86604123 590.41405296 34.86370468 C593.69427236 34.8611527 596.97442427 34.86505414 600.25463867 34.87060547 C601.21330841 34.86858124 602.17197815 34.86655701 603.15969849 34.86447144 C608.17751389 34.88012756 613.06529196 35.1265291 618.0437355 35.76729774 C621.15013608 36.13681139 624.25348186 36.20239611 627.37890625 36.28125 C628.03527573 36.29965942 628.6916452 36.31806885 629.36790466 36.33703613 C632.12721353 36.41434873 634.88671761 36.48305595 637.64624023 36.55224609 C650.85272407 36.89171237 650.85272407 36.89171237 655.14453125 37.5 C661.9338946 38.38048481 668.78310731 38.39918313 675.62109375 38.60546875 C676.73871094 38.64285156 677.85632813 38.68023437 679.0078125 38.71875 C680.01473145 38.74904297 681.02165039 38.77933594 682.05908203 38.81054688 C685.09538635 39.00614476 688.00111797 39.49670488 691 40 C692.88475224 40.12730157 694.7720853 40.22054759 696.66015625 40.28125 C697.70107422 40.31863281 698.74199219 40.35601562 699.81445312 40.39453125 C701.98371985 40.46497046 704.1529907 40.5352825 706.32226562 40.60546875 C707.36189453 40.64285156 708.40152344 40.68023437 709.47265625 40.71875 C710.41375244 40.74904297 711.35484863 40.77933594 712.32446289 40.81054688 C714.96216897 40.99732121 717.4142594 41.46324785 720 42 C721.35302295 42.12415109 722.70912577 42.21900613 724.06640625 42.28125 C724.79923828 42.31863281 725.53207031 42.35601562 726.28710938 42.39453125 C727.80793434 42.46502442 729.32876774 42.535336 730.84960938 42.60546875 C734.37027182 42.78537925 737.59706549 43.12101791 741 44 C743.49958005 44.29492709 745.99596546 44.56237822 748.5 44.8125 C756.81875255 45.68982045 765.09506687 46.81378671 773.375 48 C774.53837891 48.16604736 775.70175781 48.33209473 776.90039062 48.50317383 C797.76743281 51.5208281 797.76743281 51.5208281 805.25 53.5625 C808.73521738 54.47387748 812.10706295 55.22291883 815.6875 55.625 C819 56 819 56 820 57 C821.99412972 57.4050576 823.99606563 57.77162764 826 58.125 C836.56441323 60.10871078 846.84067588 63.21316537 857.16015625 66.18505859 C859.58310709 66.8803655 862.00859341 67.56415675 864.4375 68.23828125 C869.70619768 69.70874752 874.87759377 71.22161743 879.96191406 73.24316406 C882.15179004 74.05636669 884.35440449 74.71970944 886.59765625 75.37109375 C891.85013236 76.93088796 897.01993928 78.68082797 902.1875 80.5 C903.03763672 80.79519531 903.88777344 81.09039062 904.76367188 81.39453125 C909.59894287 83.08967645 914.28895022 84.98097867 919 87 C921.3876346 87.81606034 923.78388435 88.60728568 926.1875 89.375 C934.838227 92.19710132 943.1291824 95.65355447 951.375 99.5 C955.47538532 101.39112599 959.60826516 102.96019026 963.875 104.4375 C969.72296632 106.47407342 975.27074923 108.87974057 980.859375 111.5390625 C983.83278875 112.92221765 986.82916143 114.16155094 989.875 115.375 C1003.76101644 121.15331633 1016.03191548 129.12075216 1028.51953125 137.4140625 C1043.14096234 148.24841406 1043.14096234 148.24841406 1060 152 C1060.24532471 151.42942871 1060.49064941 150.85885742 1060.7434082 150.27099609 C1062.21665306 147.60845022 1063.94794395 145.8096232 1066.10546875 143.6640625 C1066.92466797 142.84679687 1067.74386719 142.02953125 1068.58789062 141.1875 C1069.44576172 140.341875 1070.30363281 139.49625 1071.1875 138.625 C1072.02603516 137.78710938 1072.86457031 136.94921875 1073.72851562 136.0859375 C1077.38267932 132.45744709 1081.04263695 128.89510312 1084.98046875 125.57421875 C1088.04842231 123.14649177 1088.04842231 123.14649177 1090.125 120.1875 C1092 118 1092 118 1094.5 116.9375 C1097 117 1097 117 1099.11328125 118.44140625 C1101.85609508 122.1609571 1101.63341612 125.48579886 1101.6875 130 C1101.72978472 131.60425671 1101.77524972 133.20843341 1101.82421875 134.8125 C1101.83541748 135.52019531 1101.84661621 136.22789062 1101.8581543 136.95703125 C1102.00501974 139.07229811 1102.42677819 140.96238677 1103 143 C1108.08856659 140.36125074 1111.75006805 137.55862862 1115.5 133.1875 C1116.44555434 132.12275541 1117.39216785 131.05895048 1118.33984375 129.99609375 C1118.79214355 129.4841748 1119.24444336 128.97225586 1119.71044922 128.44482422 C1121.44723608 126.4989127 1123.23744342 124.61315797 1125.0625 122.75 C1125.58972656 122.20859375 1126.11695313 121.6671875 1126.66015625 121.109375 C1128 120 1128 120 1130 120 C1130 119.34 1130 118.68 1130 118 C1130.66 118 1131.32 118 1132 118 C1132 117.34 1132 116.68 1132 116 C1134.06704582 114.20755442 1136.14056454 112.53205026 1138.3125 110.875 C1138.94389893 110.38580078 1139.57529785 109.89660156 1140.22583008 109.39257812 C1145.00641952 105.70732717 1149.86564216 102.14305382 1154.79296875 98.65625 C1156.99894378 97.08914605 1156.99894378 97.08914605 1158.67578125 95.28125 C1160 94 1160 94 1162 94 C1162 93.34 1162 92.68 1162 92 C1163.96875 90.4921875 1163.96875 90.4921875 1166.5 88.875 C1167.3353125 88.33617187 1168.170625 87.79734375 1169.03125 87.2421875 C1169.6809375 86.83226562 1170.330625 86.42234375 1171 86 C1172.5078125 87.17578125 1172.5078125 87.17578125 1174 89 C1174.43199159 94.81310428 1173.12744885 100.37023453 1170.8515625 105.67919922 C1169.84969305 108.40963815 1169.2522906 111.12130077 1168.640625 113.96484375 C1167.13064832 120.65735958 1165.20106403 127.15194516 1163.125 133.6875 C1160.70998036 141.38403142 1158.38754538 149.08001743 1156.3125 156.875 C1152.57868794 170.62500854 1146.91590413 183.51747278 1137 194 C1136.34 194 1135.68 194 1135 194 C1135 194.66 1135 195.32 1135 196 C1134.34 196 1133.68 196 1133 196 C1132.5359375 196.928125 1132.5359375 196.928125 1132.0625 197.875 C1131.375 199.25 1130.6875 200.625 1130 202 C1128.82538271 214.72822994 1132.49048042 225.05928779 1137.84375 236.40234375 C1139.66443704 240.49273863 1140.84235355 244.68294346 1142 249 C1142.33 250.19109375 1142.66 251.3821875 1143 252.609375 C1144.51889615 258.14710488 1145.99084137 263.64147894 1146.9375 269.3125 C1149.08796453 280.26194854 1156.32741779 289.18923957 1162.65722656 298.10498047 C1163.85301427 299.79256304 1165.03310249 301.49124512 1166.2109375 303.19140625 C1172.31719293 311.86808145 1178.67730715 318.82651309 1188 324 C1188.82628906 324.46664063 1189.65257812 324.93328125 1190.50390625 325.4140625 C1192.66207285 326.62317618 1194.82695141 327.81790181 1197 329 C1197 329.66 1197 330.32 1197 331 C1197.66 331 1198.32 331 1199 331 C1199.391875 331.763125 1199.78375 332.52625 1200.1875 333.3125 C1202.51360653 336.76155451 1205.12601518 337.85546571 1209 339 C1212.02076535 339.41730442 1215.01579363 339.50913817 1218.0625 339.5625 C1223.43812908 339.68294978 1227.92468763 339.97799555 1233 342 C1233 342.66 1233 343.32 1233 344 C1233.66 344 1234.32 344 1235 344 C1235.26830896 348.20350701 1235.03236295 351.28993234 1233.5625 355.25 C1231.93407878 359.69948897 1231.49284785 363.90525738 1231.2109375 368.6171875 C1231 371 1231 371 1230 374 C1229.82289011 375.87230458 1229.68132217 377.74809466 1229.5625 379.625 C1228.50590923 393.03557512 1228.50590923 393.03557512 1225.69140625 396.70703125 C1223.64179178 398.2738266 1222.35948602 398.38157125 1219.8125 398.625 C1215.47105678 399.43727002 1213.80814314 400.95968781 1211.0625 404.375 C1206.26523279 410.22578472 1201.55433379 412.41290607 1194.06445312 413.37841797 C1182.82432561 414.18058118 1171.63240559 413.97119084 1160.37280273 413.703125 C1157.0448832 413.62458423 1153.7168716 413.55766188 1150.38867188 413.4921875 C1148.2499852 413.44599288 1146.11131258 413.39914131 1143.97265625 413.3515625 C1142.49745262 413.32178818 1142.49745262 413.32178818 1140.9924469 413.29141235 C1136.92664338 413.19032138 1132.93184405 413.04566316 1128.90112305 412.48632812 C1124.43901838 411.930066 1120.09953824 411.85611822 1115.609375 411.8671875 C1114.74233948 411.86623077 1113.87530396 411.86527405 1112.98199463 411.86428833 C1111.1634514 411.86361217 1109.34490568 411.86542681 1107.52636719 411.86962891 C1104.74408587 411.87501144 1101.96196404 411.86965138 1099.1796875 411.86328125 C1097.40624964 411.86394162 1095.63281189 411.86522193 1093.859375 411.8671875 C1093.03016541 411.86516327 1092.20095581 411.86313904 1091.34661865 411.86105347 C1090.57191223 411.86420563 1089.79720581 411.86735779 1088.99902344 411.87060547 C1088.32143982 411.87140106 1087.6438562 411.87219666 1086.94573975 411.87301636 C1084.99738227 411.93534163 1084.99738227 411.93534163 1083.16539001 412.49900818 C1080.20267503 413.18447175 1077.39511041 413.13552272 1074.35473633 413.14526367 C1073.36605057 413.15030159 1073.36605057 413.15030159 1072.35739136 413.15544128 C1070.18225202 413.16492473 1068.00718996 413.16689343 1065.83203125 413.16796875 C1064.31231149 413.1711844 1062.79259204 413.1745487 1061.27287292 413.17805481 C1058.08612349 413.18404046 1054.89940114 413.18589541 1051.71264648 413.18530273 C1047.64881925 413.18520143 1043.58516799 413.19882296 1039.52138233 413.21607494 C1036.38048013 413.22725178 1033.23961961 413.22922016 1030.09869957 413.22869301 C1028.60173629 413.22986575 1027.10477167 413.23424748 1025.60782814 413.24202538 C1017.84076185 413.27858699 1010.50863471 413.20256705 1003 411 C1002.67 410.67 1002.34 410.34 1002 410 C999.27265396 409.50083854 996.55174434 409.04861734 993.8125 408.625 C988.31392524 407.74598164 982.86884983 406.80182297 977.4375 405.5625 C969.79158303 403.86241835 962.07247239 402.69316402 954.33544922 401.48730469 C948.22156382 400.5302525 942.13539368 399.50177501 936.0625 398.3125 C930.98193793 397.32624189 925.98286709 396.57844139 920.8203125 396.2109375 C919 396 919 396 917 395 C913.5691548 394.70740351 910.12937345 394.72208011 906.6875 394.6875 C905.26147461 394.64399414 905.26147461 394.64399414 903.80664062 394.59960938 C899.52411663 394.56070454 896.78831188 394.54420864 893.02734375 396.71875 C885.72434167 404.93638625 880.5816136 416.17452446 879.5625 427.125 C879.2093383 430.82457414 878.51848733 434.33401337 877.66015625 437.94921875 C877.39098389 439.09326172 877.12181152 440.23730469 876.84448242 441.41601562 C876.56580322 442.59873047 876.28712402 443.78144531 876 445 C875.4746522 447.29513649 874.95119618 449.59070688 874.4296875 451.88671875 C873.91145833 454.15364583 873.39322917 456.42057292 872.875 458.6875 C872.61074219 459.85216797 872.34648438 461.01683594 872.07421875 462.21679688 C871.82027344 463.32474609 871.56632813 464.43269531 871.3046875 465.57421875 C871.07765137 466.57026123 870.85061523 467.56630371 870.61669922 468.5925293 C870 471 870 471 869 473 C867.15754321 481.60772782 866.66695003 490.24820243 866.34179688 499.01904297 C866.2128296 502.35705816 866.07363102 505.57107011 865.5078125 508.8671875 C864.71128936 513.78112259 864.61976059 518.71771115 864.4375 523.6875 C864.3748999 525.34894043 864.3748999 525.34894043 864.31103516 527.04394531 C863.66459187 545.36071808 863.11254919 563.18900136 868 581 C868.45948087 582.97890057 868.91780864 584.95806922 869.375 586.9375 C871.96737408 597.17336879 875.65688178 606.13571482 881.64453125 614.85546875 C883 617 883 617 883 619 C883.66 619 884.32 619 885 619 C886.875 621.23046875 886.875 621.23046875 889 624.1875 C889.70125 625.15042969 890.4025 626.11335937 891.125 627.10546875 C893.56633549 630.87428042 895.02790099 633.60495044 894.9375 638.125 C894 641 894 641 892.0625 642.75 C884.51867346 645.82911287 876.67569749 646.28365 868.62182617 646.65869141 C864.97703346 646.83351236 861.56750658 647.26895357 858 648 C848.65534657 648.67023721 840.71207301 647.78405475 833 642 C829 636.81081081 829 636.81081081 829 633 C828.34 633 827.68 633 827 633 C826.34 632.01 825.68 631.02 825 630 C822.94845264 629.17159758 822.94845264 629.17159758 820.625 628.625 C816.39115858 627.33643957 814.31171326 625.91986161 812 622 C812 621.34 812 620.68 812 620 C811.34 620 810.68 620 810 620 C809.731875 619.40832031 809.46375 618.81664062 809.1875 618.20703125 C806.51190232 612.81182936 804.15458218 610.01042226 798.9140625 607.0859375 C791.54152398 602.90315034 787.82247569 594.64180888 784.8359375 587.03515625 C783.26317929 581.1375145 783.75365208 574.86144679 783.8125 568.8125 C783.81314453 567.54212891 783.81378906 566.27175781 783.81445312 564.96289062 C783.85960479 555.47602359 783.85960479 555.47602359 785 551 C785.2789274 546.62872672 785.27748502 542.25420678 785.3125 537.875 C785.34150391 536.6890625 785.37050781 535.503125 785.40039062 534.28125 C785.45528234 526.63018927 784.47094739 520.82948204 781 514 C780.54496094 513.08347656 780.08992187 512.16695312 779.62109375 511.22265625 C779.23050781 510.50980469 778.83992187 509.79695313 778.4375 509.0625 C774.18517055 500.60985735 772.80772678 492.04130748 771.5625 482.75 C769.93361324 470.63809402 767.29674835 459.36342679 762.359375 448.1171875 C760.2497207 443.27953194 758.35896781 438.35715588 756.4296875 433.4453125 C755.05076028 429.98833522 755.05076028 429.98833522 753.3203125 426.7421875 C752 424 752 424 752 421 C751.34 421 750.68 421 750 421 C749.60167969 420.18015625 749.20335937 419.3603125 748.79296875 418.515625 C747.99826172 416.89914062 747.99826172 416.89914062 747.1875 415.25 C746.66542969 414.18265625 746.14335938 413.1153125 745.60546875 412.015625 C744.11982421 409.03887543 744.11982421 409.03887543 742.30078125 406.734375 C741 405 741 405 741 403 C733.6045865 401.37050211 729.1293267 402.74335909 722.21484375 405.6640625 C718.66742907 407.1382008 715.11536931 408.21949316 711.4140625 409.2265625 C708.82689716 410.05546013 706.37940197 411.11392017 703.89208984 412.20166016 C700.64670728 413.57100222 697.32563364 414.71751877 694 415.875 C693.26523437 416.1318457 692.53046875 416.38869141 691.7734375 416.65332031 C689.51694356 417.43940991 687.25872398 418.22034396 685 419 C684.30648437 419.24073242 683.61296875 419.48146484 682.8984375 419.72949219 C672.96032146 423.16850242 663.57790824 425.94785993 653.06640625 426.75390625 C650.94015553 426.88896254 650.94015553 426.88896254 649 428 C647.4824228 428.15974497 645.96033421 428.27735262 644.4375 428.375 C639.03472155 428.82638895 633.7848138 429.71548464 628.45678711 430.70263672 C621.33107326 431.99431154 614.17169158 432.99989692 607 434 C599.38995726 435.06198315 591.80249018 436.14487437 584.25 437.5625 C576.18443022 439.05340835 568.07601881 440.04642252 559.93066406 440.99829102 C558.94549805 441.11487061 557.96033203 441.2314502 556.9453125 441.3515625 C556.06375488 441.45291504 555.18219727 441.55426758 554.27392578 441.65869141 C551.84235887 441.95704264 551.84235887 441.95704264 549 443 C547.39032246 443.09213214 545.77710628 443.12790899 544.16479492 443.12939453 C543.18335007 443.13254669 542.20190521 443.13569885 541.1907196 443.13894653 C540.13133682 443.1369223 539.07195404 443.13489807 537.98046875 443.1328125 C536.88914139 443.13376923 535.79781403 443.13472595 534.67341614 443.13571167 C532.36259911 443.13639262 530.05178016 443.13454427 527.7409668 443.13037109 C524.21203275 443.12503708 520.68322687 443.13031103 517.15429688 443.13671875 C514.90885389 443.13605765 512.66341098 443.13477583 510.41796875 443.1328125 C509.36465866 443.13483673 508.31134857 443.13686096 507.22612 443.13894653 C502.35414455 443.12344827 497.79772469 442.9349505 493 442 C491.37810308 441.89612914 489.75372918 441.82496837 488.12890625 441.7890625 C478.43268937 441.50485402 469.2883599 440.96717708 459.8125 438.81640625 C455.35329929 437.86151593 450.88815683 437.20226283 446.375 436.5625 C438.49835915 435.43037421 430.70520875 434.02589755 422.89868164 432.48730469 C415.70160736 431.0874053 408.48004893 429.96272331 401.21875 428.95117188 C395.19746183 428.09873091 395.19746183 428.09873091 393 427 C391.50420396 426.79907217 390.00303276 426.63663934 388.5 426.5 C384.22222222 426.11111111 384.22222222 426.11111111 382 425 C380.33727297 424.79777644 378.66945815 424.63588613 377 424.5 C372.22222222 424.11111111 372.22222222 424.11111111 370 423 C367.12690392 422.53497311 364.25523946 422.10305135 361.375 421.6875 C350.09087375 419.97687732 339.22140349 417.5364078 328.4375 413.75 C322.84347799 411.81185379 318.7333728 411.08887573 313 413 C312.29605388 414.31403276 311.63654342 415.6520257 311 417 C309 419.75 309 419.75 307 422 C306.34 422 305.68 422 305 422 C304.7421875 422.72058594 304.484375 423.44117188 304.21875 424.18359375 C302.93906883 427.14080569 301.39635502 429.46304725 299.5 432.0625 C297.38936799 434.96461902 295.50643494 437.73856835 294 441 C293.34 441 292.68 441 292 441 C291.87173828 441.58595947 291.74347656 442.17191895 291.61132812 442.77563477 C291.02035869 444.9259233 290.26145397 446.62634791 289.21875 448.58984375 C281.16095624 464.32363148 274.50080626 481.29048609 273 499 C272.67 499.66 272.34 500.32 272 501 C270.23390522 517.11288944 270.52832018 533.65261847 271.4375 549.8125 C271.47665527 550.51753662 271.51581055 551.22257324 271.55615234 551.94897461 C271.77309642 555.59721155 271.77309642 555.59721155 273 559 C273.0825 560.2375 273.165 561.475 273.25 562.75 C274.90070445 578.54597185 284.17586235 592.03366296 292.86157227 604.80761719 C293.61845337 605.92185059 293.61845337 605.92185059 294.390625 607.05859375 C294.84469727 607.72173584 295.29876953 608.38487793 295.76660156 609.06811523 C299.09746225 614.28527687 299.09746225 614.28527687 298.625 617.75 C298.41875 618.4925 298.2125 619.235 298 620 C297.34 620 296.68 620 296 620 C296 620.66 296 621.32 296 622 C286.41384294 624.77056563 276.89126749 626.00384154 267 627 C267 627.99 267 628.98 267 630 C267.66 630 268.32 630 269 630 C271.96670869 634.68931374 273.89235992 638.29507585 274 644 C272.56321911 647.12711134 271.46605577 647.82481591 268.24609375 649.03515625 C258.55160196 651.91667186 248.72894055 652.19938635 238.6875 652.25 C237.67381348 652.25918457 236.66012695 652.26836914 235.61572266 652.27783203 C221.04995079 652.21814603 221.04995079 652.21814603 215.25 648 C212.19731428 643.92975238 208 638.26919707 208 633 C207.34 633 206.68 633 206 633 C206 632.34 206 631.68 206 631 C205.278125 631.33 204.55625 631.66 203.8125 632 C200.82042078 633.06385039 199.12801217 633.54740213 196 633 C190.84165308 628.90366568 189.02221648 623.9982005 186.75 617.9375 C186.399375 617.03966797 186.04875 616.14183594 185.6875 615.21679688 C181.69008336 604.877325 181.28531248 596.23496282 182.9375 585.1875 C186.41148565 560.79462236 185.99260896 535.87078414 176 513 C175.48839898 511.40588088 175.00533854 509.80207283 174.5625 508.1875 C173.57063596 504.75730352 172.43268421 501.48450576 171.0625 498.1875 C166.01105298 485.70515987 161.93898017 473.85469034 167.1875 460.75 C168.82702591 457.19148355 170.66299687 453.85007066 172.6875 450.5 C177.09612732 442.77095083 177.75833273 434.27740822 175.81640625 425.69140625 C174.35801413 420.88359684 172.22487566 416.49402745 170 412 C168.93945158 409.80826917 167.88680626 407.61303787 166.84033203 405.41455078 C166.12626655 403.91510921 165.40610617 402.41855143 164.67919922 400.92529297 C162.94232928 397.29579889 161.53787507 394.03406304 161 390 C160.34 390 159.68 390 159 390 C158.58363281 388.83597656 158.16726562 387.67195313 157.73828125 386.47265625 C156.17014228 382.29187098 154.25111502 378.39101498 152.1875 374.4375 C148.29164975 366.79955954 145.0347926 359.01592377 142 351 C141.51445672 349.73562569 141.02877846 348.47130321 140.54296875 347.20703125 C136.47629332 336.54981507 132.71357438 325.78454107 129 315 C128.61199219 313.88496094 128.22398437 312.76992188 127.82421875 311.62109375 C127 309 127 309 126.5625 305.6875 C126.12332624 302.80847201 125.60463789 300.7290228 124.625 298.0546875 C121.2209901 288.05038081 119.84338826 277.37827589 118 267 C117.86142578 266.25862793 117.72285156 265.51725586 117.58007812 264.75341797 C113.94899462 244.98247602 114.06445684 221.51015994 119 202 C119.30562614 200.68120676 119.6102962 199.36219162 119.9140625 198.04296875 C121.77732311 190.26399993 124.34725483 183.11380109 128 176 C128.67869141 174.64648438 128.67869141 174.64648438 129.37109375 173.265625 C132.92536353 166.44605046 136.97804706 159.8476344 142 154 C142.66 154 143.32 154 144 154 C144 153.34 144 152.68 144 152 C143.01 152.33 142.02 152.66 141 153 C111.9565276 155.75244623 83.19167958 153.85005046 57 140 C57 139.34 57 138.68 57 138 C56.29875 137.79375 55.5975 137.5875 54.875 137.375 C51.19826641 135.6165622 48.52704921 133.19571859 46 130 C46 129.34 46 128.68 46 128 C45.34 128 44.68 128 44 128 C34.66562339 111.74462194 27.04707169 97.13524354 26.5390625 78.015625 C25.8883597 74.37546152 24.40600764 72.74150671 22 70 C22 69.34 22 68.68 22 68 C21.34 68 20.68 68 20 68 C14.39944848 58.23457133 10.0791313 48.52728022 6.59765625 37.82226562 C5.83353817 35.49245463 5.0051607 33.18646391 4.1875 30.875 C2.98766904 27.26849057 2.47063963 23.76511707 2 20 C1.67 19.67 1.34 19.34 1 19 C-0.6053987 12.98854354 -1.33858522 7.20739576 -1 1 C-0.67 0.67 -0.34 0.34 0 0 Z M60 42 C58.989375 42.7425 57.97875 43.485 56.9375 44.25 C56.298125 44.8275 55.65875 45.405 55 46 C55 46.66 55 47.32 55 48 C54.34 48 53.68 48 53 48 C49.80439959 52.06573561 49.80439959 52.06573561 49 57 C48.34 57 47.68 57 47 57 C45.40837921 62.57067277 44.79325056 67.21101581 45 73 C49.98028333 75.97210457 54.46918472 74.79979927 60 74 C61.11375 73.84789062 62.2275 73.69578125 63.375 73.5390625 C75.49562628 71.45582986 85.71090622 66.04712927 93 56 C95.42930667 52.35603999 95.29874985 50.46087919 95.3125 46.125 C95.32925781 44.91070312 95.34601563 43.69640625 95.36328125 42.4453125 C94.97404488 38.75384499 94.24610259 36.91940735 92 34 C81.49149614 27.65111225 68.81212437 35.22287893 60 42 Z " fill="#000000" transform="translate(24,319)"/>
<path d="" fill="#000000" transform="translate(0,0)"/>
</svg>
